<svg width="979" height="232" viewBox="0 0 979 232" fill="none" xmlns="http://www.w3.org/2000/svg">
<path d="M0.176137 7.45454H32.1364L87.7045 143.136H89.75L145.318 7.45454H177.278V182H152.222V55.6932H150.602L99.125 181.744H78.3295L26.8523 55.6079H25.233V182H0.176137V7.45454ZM269.692 184.642C256.794 184.642 245.686 181.886 236.368 176.375C227.107 170.807 219.947 162.994 214.891 152.938C209.891 142.824 207.391 130.977 207.391 117.398C207.391 103.989 209.891 92.1705 214.891 81.9432C219.947 71.7159 226.993 63.733 236.027 57.9943C245.118 52.2557 255.743 49.3864 267.902 49.3864C275.288 49.3864 282.447 50.608 289.379 53.0511C296.311 55.4943 302.533 59.3295 308.044 64.5568C313.555 69.7841 317.902 76.5739 321.084 84.9261C324.266 93.2216 325.857 103.307 325.857 115.182V124.216H221.794V105.125H300.885C300.885 98.4205 299.521 92.483 296.794 87.3125C294.067 82.0852 290.232 77.9659 285.288 74.9545C280.402 71.9432 274.663 70.4375 268.072 70.4375C260.913 70.4375 254.663 72.1989 249.322 75.7216C244.038 79.1875 239.947 83.733 237.05 89.358C234.209 94.9261 232.788 100.977 232.788 107.511V122.426C232.788 131.176 234.322 138.619 237.391 144.756C240.516 150.892 244.862 155.58 250.43 158.818C255.999 162 262.504 163.591 269.947 163.591C274.777 163.591 279.18 162.909 283.158 161.545C287.135 160.125 290.572 158.023 293.47 155.239C296.368 152.455 298.584 149.017 300.118 144.926L324.237 149.273C322.305 156.375 318.839 162.597 313.839 167.938C308.896 173.222 302.675 177.341 295.175 180.295C287.732 183.193 279.237 184.642 269.692 184.642ZM402.886 184.557C392.318 184.557 382.886 181.858 374.591 176.46C366.352 171.006 359.875 163.25 355.159 153.193C350.5 143.08 348.17 130.949 348.17 116.801C348.17 102.653 350.528 90.5511 355.244 80.4943C360.017 70.4375 366.551 62.7386 374.847 57.3977C383.142 52.0568 392.545 49.3864 403.057 49.3864C411.182 49.3864 417.716 50.75 422.659 53.4773C427.659 56.1477 431.523 59.2727 434.25 62.8523C437.034 66.4318 439.193 69.5852 440.727 72.3125H442.261V7.45454H467.744V182H442.858V161.631H440.727C439.193 164.415 436.977 167.597 434.08 171.176C431.239 174.756 427.318 177.881 422.318 180.551C417.318 183.222 410.841 184.557 402.886 184.557ZM408.511 162.824C415.841 162.824 422.034 160.892 427.091 157.028C432.205 153.108 436.068 147.682 438.682 140.75C441.352 133.818 442.688 125.75 442.688 116.545C442.688 107.455 441.381 99.5 438.767 92.6818C436.153 85.8636 432.318 80.5511 427.261 76.7443C422.205 72.9375 415.955 71.0341 408.511 71.0341C400.841 71.0341 394.449 73.0227 389.335 77C384.222 80.9773 380.358 86.4034 377.744 93.2784C375.188 100.153 373.909 107.909 373.909 116.545C373.909 125.295 375.216 133.165 377.83 140.153C380.443 147.142 384.307 152.682 389.42 156.773C394.591 160.807 400.955 162.824 408.511 162.824ZM503.865 182V51.0909H529.348V182H503.865ZM516.734 30.892C512.303 30.892 508.496 29.4148 505.314 26.4602C502.189 23.4489 500.626 19.8693 500.626 15.7216C500.626 11.517 502.189 7.9375 505.314 4.98295C508.496 1.97159 512.303 0.465905 516.734 0.465905C521.166 0.465905 524.945 1.97159 528.07 4.98295C531.251 7.9375 532.842 11.517 532.842 15.7216C532.842 19.8693 531.251 23.4489 528.07 26.4602C524.945 29.4148 521.166 30.892 516.734 30.892Z" fill="#F0EBE6"/>
<path d="M561.42 182V7.45454H598.324V84.4148H600.625L663.438 7.45454H707.67L642.898 85.608L708.438 182H664.29L616.477 110.239L598.324 132.398V182H561.42ZM776.007 184.557C762.541 184.557 750.95 181.83 741.234 176.375C731.575 170.864 724.132 163.08 718.905 153.023C713.678 142.909 711.064 130.949 711.064 117.142C711.064 103.676 713.678 91.858 718.905 81.6875C724.132 71.517 731.49 63.5909 740.979 57.9091C750.524 52.2273 761.717 49.3864 774.558 49.3864C783.195 49.3864 791.234 50.7784 798.678 53.5625C806.178 56.2898 812.712 60.4091 818.28 65.9205C823.905 71.4318 828.28 78.3636 831.405 86.7159C834.53 95.0114 836.092 104.727 836.092 115.864V125.835H725.553V103.335H801.916C801.916 98.108 800.78 93.4773 798.507 89.4432C796.234 85.4091 793.081 82.2557 789.047 79.983C785.07 77.6534 780.439 76.4886 775.155 76.4886C769.643 76.4886 764.757 77.767 760.496 80.3239C756.291 82.8239 752.996 86.2045 750.609 90.4659C748.223 94.6705 747.001 99.358 746.945 104.528V125.92C746.945 132.398 748.138 137.994 750.524 142.71C752.967 147.426 756.405 151.062 760.837 153.619C765.268 156.176 770.524 157.455 776.604 157.455C780.638 157.455 784.331 156.886 787.683 155.75C791.036 154.614 793.905 152.909 796.291 150.636C798.678 148.364 800.496 145.58 801.746 142.284L835.325 144.5C833.621 152.568 830.126 159.614 824.842 165.636C819.615 171.602 812.854 176.261 804.558 179.614C796.32 182.909 786.803 184.557 776.007 184.557ZM878.435 231.091C873.832 231.091 869.514 230.722 865.48 229.983C861.503 229.301 858.207 228.42 855.594 227.341L863.776 200.239C868.037 201.545 871.872 202.256 875.281 202.369C878.747 202.483 881.73 201.688 884.23 199.983C886.787 198.278 888.861 195.381 890.452 191.29L892.582 185.75L845.622 51.0909H883.804L910.906 147.227H912.27L939.628 51.0909H978.065L927.185 196.148C924.741 203.193 921.418 209.33 917.213 214.557C913.065 219.841 907.81 223.903 901.446 226.744C895.082 229.642 887.412 231.091 878.435 231.091Z" fill="url(#paint0_linear_56_453)"/>
<defs>
<linearGradient id="paint0_linear_56_453" x1="494" y1="-65" x2="494" y2="255" gradientUnits="userSpaceOnUse">
<stop offset="0.0989583" stop-color="#FFA600"/>
<stop offset="1" stop-color="#FF6361"/>
</linearGradient>
</defs>
</svg>
