<svg width="761" height="93" viewBox="0 0 761 93" fill="none" xmlns="http://www.w3.org/2000/svg">
<path d="M0.775568 8.97514V2.63636H30.6406V8.97514H19.5078V39H11.9084V8.97514H0.775568ZM42.9808 23.233V39H35.4169V2.63636H42.7678V16.5391H43.0874C43.7029 14.9292 44.6972 13.6686 46.0703 12.7571C47.4434 11.8338 49.1657 11.3722 51.2372 11.3722C53.1312 11.3722 54.7824 11.7865 56.1911 12.6151C57.6115 13.4318 58.7124 14.6096 59.4936 16.1484C60.2867 17.6754 60.6773 19.5043 60.6655 21.6349V39H53.1016V22.9844C53.1134 21.3035 52.6873 19.9955 51.8232 19.0604C50.9709 18.1252 49.7753 17.6577 48.2365 17.6577C47.2067 17.6577 46.2952 17.8767 45.5021 18.3146C44.7209 18.7526 44.1054 19.3918 43.6555 20.2322C43.2176 21.0608 42.9927 22.0611 42.9808 23.233ZM79.0471 39.5327C76.2417 39.5327 73.8269 38.9645 71.8027 37.8281C69.7904 36.6799 68.2398 35.0582 67.1507 32.9631C66.0617 30.8561 65.5172 28.3643 65.5172 25.4879C65.5172 22.6825 66.0617 20.2204 67.1507 18.1016C68.2398 15.9827 69.7727 14.3314 71.7495 13.1477C73.7381 11.964 76.07 11.3722 78.7452 11.3722C80.5444 11.3722 82.2194 11.6622 83.7701 12.2422C85.3326 12.8104 86.6938 13.6686 87.8539 14.8168C89.0257 15.965 89.9372 17.4091 90.5882 19.1491C91.2393 20.8774 91.5648 22.9015 91.5648 25.2216V27.299H68.5357V22.6115H84.4448C84.4448 21.5225 84.208 20.5578 83.7346 19.7173C83.2611 18.8769 82.6041 18.2199 81.7637 17.7464C80.9351 17.2611 79.9703 17.0185 78.8695 17.0185C77.7213 17.0185 76.7033 17.2848 75.8155 17.8175C74.9396 18.3383 74.253 19.0426 73.7559 19.9304C73.2587 20.8063 73.0042 21.7829 72.9924 22.8601V27.3168C72.9924 28.6662 73.2409 29.8321 73.7381 30.8146C74.2471 31.7971 74.9632 32.5547 75.8865 33.0874C76.8098 33.62 77.9048 33.8864 79.1713 33.8864C80.0118 33.8864 80.7812 33.768 81.4796 33.5312C82.178 33.2945 82.7757 32.9394 83.2729 32.4659C83.7701 31.9924 84.1489 31.4124 84.4093 30.7259L91.405 31.1875C91.0499 32.8684 90.3219 34.3362 89.2211 35.5909C88.132 36.8338 86.7234 37.8045 84.9952 38.5028C83.2788 39.1894 81.2961 39.5327 79.0471 39.5327ZM115.903 2.63636V39H108.215V2.63636H115.903ZM129.651 23.233V39H122.087V11.7273H129.296V16.5391H129.615C130.219 14.9529 131.231 13.6982 132.651 12.7749C134.072 11.8397 135.794 11.3722 137.818 11.3722C139.712 11.3722 141.364 11.7865 142.772 12.6151C144.181 13.4437 145.276 14.6274 146.057 16.1662C146.838 17.6932 147.229 19.5161 147.229 21.6349V39H139.665V22.9844C139.677 21.3153 139.251 20.0133 138.387 19.0781C137.522 18.1312 136.333 17.6577 134.818 17.6577C133.8 17.6577 132.9 17.8767 132.119 18.3146C131.349 18.7526 130.746 19.3918 130.308 20.2322C129.882 21.0608 129.663 22.0611 129.651 23.233ZM160.754 23.233V39H153.19V11.7273H160.399V16.5391H160.719C161.322 14.9529 162.335 13.6982 163.755 12.7749C165.175 11.8397 166.898 11.3722 168.922 11.3722C170.816 11.3722 172.467 11.7865 173.876 12.6151C175.284 13.4437 176.379 14.6274 177.161 16.1662C177.942 17.6932 178.332 19.5161 178.332 21.6349V39H170.768V22.9844C170.78 21.3153 170.354 20.0133 169.49 19.0781C168.626 18.1312 167.436 17.6577 165.921 17.6577C164.903 17.6577 164.004 17.8767 163.222 18.3146C162.453 18.7526 161.849 19.3918 161.411 20.2322C160.985 21.0608 160.766 22.0611 160.754 23.233ZM196.723 39.5327C193.917 39.5327 191.503 38.9645 189.479 37.8281C187.466 36.6799 185.916 35.0582 184.827 32.9631C183.738 30.8561 183.193 28.3643 183.193 25.4879C183.193 22.6825 183.738 20.2204 184.827 18.1016C185.916 15.9827 187.448 14.3314 189.425 13.1477C191.414 11.964 193.746 11.3722 196.421 11.3722C198.22 11.3722 199.895 11.6622 201.446 12.2422C203.008 12.8104 204.37 13.6686 205.53 14.8168C206.702 15.965 207.613 17.4091 208.264 19.1491C208.915 20.8774 209.241 22.9015 209.241 25.2216V27.299H186.211V22.6115H202.121C202.121 21.5225 201.884 20.5578 201.41 19.7173C200.937 18.8769 200.28 18.2199 199.439 17.7464C198.611 17.2611 197.646 17.0185 196.545 17.0185C195.397 17.0185 194.379 17.2848 193.491 17.8175C192.615 18.3383 191.929 19.0426 191.432 19.9304C190.934 20.8063 190.68 21.7829 190.668 22.8601V27.3168C190.668 28.6662 190.917 29.8321 191.414 30.8146C191.923 31.7971 192.639 32.5547 193.562 33.0874C194.486 33.62 195.581 33.8864 196.847 33.8864C197.688 33.8864 198.457 33.768 199.155 33.5312C199.854 33.2945 200.452 32.9394 200.949 32.4659C201.446 31.9924 201.825 31.4124 202.085 30.7259L209.081 31.1875C208.726 32.8684 207.998 34.3362 206.897 35.5909C205.808 36.8338 204.399 37.8045 202.671 38.5028C200.955 39.1894 198.972 39.5327 196.723 39.5327ZM214.177 39V11.7273H221.51V16.4858H221.794C222.291 14.7931 223.126 13.5147 224.297 12.6506C225.469 11.7746 226.819 11.3366 228.346 11.3366C228.724 11.3366 229.133 11.3603 229.571 11.4077C230.009 11.455 230.394 11.5201 230.725 11.603V18.3146C230.37 18.2081 229.879 18.1134 229.251 18.0305C228.624 17.9477 228.05 17.9062 227.529 17.9062C226.416 17.9062 225.422 18.1489 224.546 18.6342C223.682 19.1077 222.995 19.7706 222.486 20.6229C221.989 21.4751 221.741 22.4576 221.741 23.5703V39H214.177ZM254.535 39L244.131 2.63636H252.529L258.548 27.9027H258.85L265.491 2.63636H272.682L279.305 27.956H279.624L285.643 2.63636H294.042L283.637 39H276.144L269.219 15.2251H268.935L262.028 39H254.535ZM307.407 39.5327C304.649 39.5327 302.264 38.9467 300.252 37.7749C298.251 36.5911 296.707 34.9458 295.618 32.8388C294.529 30.7199 293.984 28.2637 293.984 25.4702C293.984 22.6529 294.529 20.1908 295.618 18.0838C296.707 15.965 298.251 14.3196 300.252 13.1477C302.264 11.964 304.649 11.3722 307.407 11.3722C310.165 11.3722 312.545 11.964 314.545 13.1477C316.557 14.3196 318.108 15.965 319.197 18.0838C320.286 20.1908 320.831 22.6529 320.831 25.4702C320.831 28.2637 320.286 30.7199 319.197 32.8388C318.108 34.9458 316.557 36.5911 314.545 37.7749C312.545 38.9467 310.165 39.5327 307.407 39.5327ZM307.443 33.6733C308.698 33.6733 309.745 33.3182 310.586 32.608C311.426 31.8859 312.059 30.9034 312.485 29.6605C312.923 28.4176 313.142 27.0031 313.142 25.4169C313.142 23.8307 312.923 22.4162 312.485 21.1733C312.059 19.9304 311.426 18.9479 310.586 18.2259C309.745 17.5038 308.698 17.1428 307.443 17.1428C306.176 17.1428 305.111 17.5038 304.247 18.2259C303.395 18.9479 302.749 19.9304 302.311 21.1733C301.885 22.4162 301.672 23.8307 301.672 25.4169C301.672 27.0031 301.885 28.4176 302.311 29.6605C302.749 30.9034 303.395 31.8859 304.247 32.608C305.111 33.3182 306.176 33.6733 307.443 33.6733ZM325.749 39V11.7273H333.082V16.4858H333.366C333.863 14.7931 334.698 13.5147 335.87 12.6506C337.042 11.7746 338.391 11.3366 339.918 11.3366C340.297 11.3366 340.705 11.3603 341.143 11.4077C341.581 11.455 341.966 11.5201 342.297 11.603V18.3146C341.942 18.2081 341.451 18.1134 340.824 18.0305C340.196 17.9477 339.622 17.9062 339.101 17.9062C337.989 17.9062 336.994 18.1489 336.118 18.6342C335.254 19.1077 334.568 19.7706 334.059 20.6229C333.561 21.4751 333.313 22.4576 333.313 23.5703V39H325.749ZM353.062 31.152L353.079 22.0788H354.18L362.916 11.7273H371.599L359.862 25.4347H358.069L353.062 31.152ZM346.208 39V2.63636H353.772V39H346.208ZM363.253 39L355.228 27.1214L360.27 21.777L372.113 39H363.253ZM375.309 39V11.7273H382.873V39H375.309ZM379.109 8.21165C377.985 8.21165 377.02 7.83878 376.215 7.09304C375.422 6.33546 375.025 5.42992 375.025 4.37642C375.025 3.33475 375.422 2.44105 376.215 1.69531C377.02 0.937735 377.985 0.558947 379.109 0.558947C380.234 0.558947 381.193 0.937735 381.986 1.69531C382.791 2.44105 383.193 3.33475 383.193 4.37642C383.193 5.42992 382.791 6.33546 381.986 7.09304C381.193 7.83878 380.234 8.21165 379.109 8.21165ZM396.496 23.233V39H388.933V11.7273H396.141V16.5391H396.461C397.065 14.9529 398.077 13.6982 399.497 12.7749C400.918 11.8397 402.64 11.3722 404.664 11.3722C406.558 11.3722 408.209 11.7865 409.618 12.6151C411.027 13.4437 412.121 14.6274 412.903 16.1662C413.684 17.6932 414.075 19.5161 414.075 21.6349V39H406.511V22.9844C406.522 21.3153 406.096 20.0133 405.232 19.0781C404.368 18.1312 403.179 17.6577 401.663 17.6577C400.645 17.6577 399.746 17.8767 398.964 18.3146C398.195 18.7526 397.591 19.3918 397.153 20.2322C396.727 21.0608 396.508 22.0611 396.496 23.233ZM432.323 49.7955C429.873 49.7955 427.772 49.4581 426.02 48.7834C424.28 48.1205 422.895 47.215 421.865 46.0668C420.835 44.9186 420.166 43.6283 419.858 42.196L426.854 41.255C427.067 41.7995 427.405 42.3085 427.866 42.782C428.328 43.2554 428.938 43.6342 429.695 43.9183C430.465 44.2143 431.4 44.3622 432.501 44.3622C434.146 44.3622 435.501 43.9598 436.567 43.1548C437.644 42.3617 438.182 41.0301 438.182 39.1598V34.1705H437.863C437.531 34.928 437.034 35.6442 436.371 36.3189C435.708 36.9936 434.856 37.544 433.814 37.9702C432.773 38.3963 431.53 38.6094 430.086 38.6094C428.038 38.6094 426.174 38.1359 424.493 37.1889C422.824 36.2301 421.492 34.7682 420.498 32.8033C419.515 30.8265 419.024 28.3288 419.024 25.3104C419.024 22.2209 419.527 19.6404 420.533 17.5689C421.539 15.4974 422.877 13.9467 424.546 12.9169C426.227 11.8871 428.068 11.3722 430.068 11.3722C431.595 11.3722 432.873 11.6326 433.903 12.1534C434.933 12.6624 435.762 13.3016 436.389 14.071C437.028 14.8286 437.519 15.5743 437.863 16.3082H438.147V11.7273H445.657V39.2663C445.657 41.5864 445.089 43.5277 443.953 45.0902C442.817 46.6527 441.242 47.8246 439.23 48.6058C437.229 49.3989 434.927 49.7955 432.323 49.7955ZM432.483 32.9276C433.702 32.9276 434.732 32.6257 435.572 32.022C436.425 31.4065 437.076 30.5305 437.525 29.3942C437.987 28.246 438.218 26.8729 438.218 25.2749C438.218 23.6768 437.993 22.2919 437.543 21.12C437.093 19.9363 436.442 19.0189 435.59 18.3679C434.738 17.7169 433.702 17.3913 432.483 17.3913C431.24 17.3913 430.192 17.7287 429.34 18.4034C428.488 19.0663 427.843 19.9896 427.405 21.1733C426.967 22.357 426.748 23.7242 426.748 25.2749C426.748 26.8492 426.967 28.2105 427.405 29.3587C427.854 30.495 428.5 31.3769 429.34 32.0043C430.192 32.6198 431.24 32.9276 432.483 32.9276ZM474.368 19.5043L467.444 19.9304C467.325 19.3385 467.071 18.8059 466.68 18.3324C466.29 17.8471 465.775 17.4624 465.135 17.1783C464.508 16.8823 463.756 16.7344 462.881 16.7344C461.709 16.7344 460.72 16.983 459.915 17.4801C459.11 17.9654 458.708 18.6165 458.708 19.4332C458.708 20.0843 458.968 20.6347 459.489 21.0845C460.01 21.5343 460.904 21.8954 462.17 22.1676L467.106 23.1619C469.758 23.7064 471.735 24.5824 473.037 25.7898C474.339 26.9972 474.99 28.5833 474.99 30.5483C474.99 32.3357 474.463 33.9041 473.41 35.2536C472.368 36.603 470.936 37.6565 469.113 38.4141C467.302 39.1598 465.212 39.5327 462.845 39.5327C459.235 39.5327 456.358 38.781 454.216 37.2777C452.085 35.7625 450.836 33.7029 450.469 31.0987L457.909 30.7081C458.134 31.8089 458.678 32.6494 459.542 33.2294C460.407 33.7976 461.513 34.0817 462.863 34.0817C464.189 34.0817 465.254 33.8272 466.059 33.3182C466.876 32.7973 467.29 32.1286 467.302 31.3118C467.29 30.6252 467 30.063 466.432 29.625C465.863 29.1752 464.988 28.8319 463.804 28.5952L459.081 27.6541C456.417 27.1214 454.435 26.1982 453.133 24.8842C451.842 23.5703 451.197 21.8954 451.197 19.8594C451.197 18.1075 451.671 16.5982 452.618 15.3317C453.577 14.0651 454.92 13.0885 456.648 12.402C458.388 11.7154 460.424 11.3722 462.756 11.3722C466.201 11.3722 468.912 12.1001 470.888 13.5561C472.877 15.0121 474.037 16.9948 474.368 19.5043ZM503.648 39.5327C500.89 39.5327 498.504 38.9467 496.492 37.7749C494.492 36.5911 492.947 34.9458 491.858 32.8388C490.769 30.7199 490.224 28.2637 490.224 25.4702C490.224 22.6529 490.769 20.1908 491.858 18.0838C492.947 15.965 494.492 14.3196 496.492 13.1477C498.504 11.964 500.89 11.3722 503.648 11.3722C506.406 11.3722 508.785 11.964 510.785 13.1477C512.798 14.3196 514.348 15.965 515.437 18.0838C516.526 20.1908 517.071 22.6529 517.071 25.4702C517.071 28.2637 516.526 30.7199 515.437 32.8388C514.348 34.9458 512.798 36.5911 510.785 37.7749C508.785 38.9467 506.406 39.5327 503.648 39.5327ZM503.683 33.6733C504.938 33.6733 505.985 33.3182 506.826 32.608C507.666 31.8859 508.3 30.9034 508.726 29.6605C509.164 28.4176 509.383 27.0031 509.383 25.4169C509.383 23.8307 509.164 22.4162 508.726 21.1733C508.3 19.9304 507.666 18.9479 506.826 18.2259C505.985 17.5038 504.938 17.1428 503.683 17.1428C502.416 17.1428 501.351 17.5038 500.487 18.2259C499.635 18.9479 498.99 19.9304 498.552 21.1733C498.126 22.4162 497.912 23.8307 497.912 25.4169C497.912 27.0031 498.126 28.4176 498.552 29.6605C498.99 30.9034 499.635 31.8859 500.487 32.608C501.351 33.3182 502.416 33.6733 503.683 33.6733ZM536.655 11.7273V17.4091H519.823V11.7273H536.655ZM523.676 39V9.75639C523.676 7.77959 524.061 6.14015 524.83 4.83807C525.611 3.53598 526.677 2.55942 528.026 1.90838C529.376 1.25734 530.908 0.931816 532.625 0.931816C533.785 0.931816 534.844 1.02059 535.803 1.19815C536.774 1.37571 537.496 1.53551 537.969 1.67756L536.62 7.35938C536.324 7.26468 535.957 7.1759 535.519 7.09304C535.093 7.01018 534.655 6.96875 534.205 6.96875C533.092 6.96875 532.317 7.22917 531.879 7.75C531.441 8.259 531.222 8.97514 531.222 9.89844V39H523.676ZM552.991 2.63636H562.472L572.486 27.0682H572.912L582.927 2.63636H592.408V39H584.951V15.3317H584.649L575.238 38.8224H570.16L560.75 15.2429H560.448V39H552.991V2.63636ZM611.029 39.5327C608.224 39.5327 605.809 38.9645 603.785 37.8281C601.773 36.6799 600.222 35.0582 599.133 32.9631C598.044 30.8561 597.5 28.3643 597.5 25.4879C597.5 22.6825 598.044 20.2204 599.133 18.1016C600.222 15.9827 601.755 14.3314 603.732 13.1477C605.721 11.964 608.052 11.3722 610.728 11.3722C612.527 11.3722 614.202 11.6622 615.752 12.2422C617.315 12.8104 618.676 13.6686 619.836 14.8168C621.008 15.965 621.92 17.4091 622.571 19.1491C623.222 20.8774 623.547 22.9015 623.547 25.2216V27.299H600.518V22.6115H616.427C616.427 21.5225 616.19 20.5578 615.717 19.7173C615.243 18.8769 614.587 18.2199 613.746 17.7464C612.917 17.2611 611.953 17.0185 610.852 17.0185C609.704 17.0185 608.686 17.2848 607.798 17.8175C606.922 18.3383 606.235 19.0426 605.738 19.9304C605.241 20.8063 604.987 21.7829 604.975 22.8601V27.3168C604.975 28.6662 605.223 29.8321 605.721 30.8146C606.23 31.7971 606.946 32.5547 607.869 33.0874C608.792 33.62 609.887 33.8864 611.154 33.8864C611.994 33.8864 612.764 33.768 613.462 33.5312C614.16 33.2945 614.758 32.9394 615.255 32.4659C615.752 31.9924 616.131 31.4124 616.392 30.7259L623.387 31.1875C623.032 32.8684 622.304 34.3362 621.203 35.5909C620.114 36.8338 618.706 37.8045 616.978 38.5028C615.261 39.1894 613.279 39.5327 611.029 39.5327ZM638.533 39.4439C636.462 39.4439 634.585 38.9112 632.904 37.8459C631.235 36.7687 629.91 35.1884 628.927 33.1051C627.957 31.0099 627.471 28.4413 627.471 25.3991C627.471 22.2741 627.974 19.6759 628.98 17.6044C629.987 15.5211 631.324 13.9645 632.993 12.9347C634.674 11.893 636.515 11.3722 638.515 11.3722C640.042 11.3722 641.315 11.6326 642.333 12.1534C643.363 12.6624 644.191 13.3016 644.819 14.071C645.458 14.8286 645.943 15.5743 646.275 16.3082H646.505V2.63636H654.051V39H646.594V34.6321H646.275C645.919 35.3897 645.416 36.1413 644.765 36.8871C644.126 37.621 643.292 38.2306 642.262 38.7159C641.244 39.2012 640.001 39.4439 638.533 39.4439ZM640.93 33.4247C642.149 33.4247 643.179 33.0933 644.02 32.4304C644.872 31.7557 645.523 30.8146 645.973 29.6072C646.434 28.3999 646.665 26.9853 646.665 25.3636C646.665 23.742 646.44 22.3333 645.99 21.1378C645.541 19.9422 644.89 19.0189 644.037 18.3679C643.185 17.7169 642.149 17.3913 640.93 17.3913C639.687 17.3913 638.64 17.7287 637.787 18.4034C636.935 19.0781 636.29 20.0133 635.852 21.2088C635.414 22.4044 635.195 23.7893 635.195 25.3636C635.195 26.9498 635.414 28.3525 635.852 29.5717C636.302 30.7791 636.947 31.7261 637.787 32.4126C638.64 33.0874 639.687 33.4247 640.93 33.4247ZM660.27 39V11.7273H667.834V39H660.27ZM664.07 8.21165C662.946 8.21165 661.981 7.83878 661.176 7.09304C660.383 6.33546 659.986 5.42992 659.986 4.37642C659.986 3.33475 660.383 2.44105 661.176 1.69531C661.981 0.937735 662.946 0.558947 664.07 0.558947C665.195 0.558947 666.153 0.937735 666.947 1.69531C667.751 2.44105 668.154 3.33475 668.154 4.37642C668.154 5.42992 667.751 6.33546 666.947 7.09304C666.153 7.83878 665.195 8.21165 664.07 8.21165ZM1.00852 92V71.6364H14.054V74.7287H4.69744V80.2571H13.1591V83.3494H4.69744V92H1.00852ZM17.0369 92V76.7273H20.527V79.2727H20.6861C20.9645 78.3911 21.4418 77.7116 22.1179 77.2344C22.8007 76.7505 23.5795 76.5085 24.4545 76.5085C24.6534 76.5085 24.8755 76.5185 25.1207 76.5384C25.3726 76.5516 25.5814 76.5748 25.7472 76.608V79.919C25.5947 79.866 25.3527 79.8196 25.0213 79.7798C24.6965 79.7334 24.3816 79.7102 24.0767 79.7102C23.4205 79.7102 22.8305 79.8527 22.3068 80.1378C21.7898 80.4162 21.3821 80.804 21.0838 81.3011C20.7855 81.7983 20.6364 82.3717 20.6364 83.0213V92H17.0369ZM34.1715 92.2983C32.68 92.2983 31.3874 91.9702 30.2937 91.3139C29.1999 90.6577 28.3514 89.7396 27.7482 88.5597C27.1516 87.3797 26.8533 86.0009 26.8533 84.4233C26.8533 82.8456 27.1516 81.4635 27.7482 80.277C28.3514 79.0904 29.1999 78.169 30.2937 77.5128C31.3874 76.8565 32.68 76.5284 34.1715 76.5284C35.663 76.5284 36.9556 76.8565 38.0494 77.5128C39.1431 78.169 39.9883 79.0904 40.5849 80.277C41.1881 81.4635 41.4897 82.8456 41.4897 84.4233C41.4897 86.0009 41.1881 87.3797 40.5849 88.5597C39.9883 89.7396 39.1431 90.6577 38.0494 91.3139C36.9556 91.9702 35.663 92.2983 34.1715 92.2983ZM34.1914 89.4148C35.0001 89.4148 35.6763 89.1927 36.2198 88.7486C36.7634 88.2978 37.1677 87.6946 37.4329 86.9389C37.7047 86.1832 37.8406 85.3414 37.8406 84.4134C37.8406 83.4787 37.7047 82.6335 37.4329 81.8778C37.1677 81.1155 36.7634 80.509 36.2198 80.0582C35.6763 79.6075 35.0001 79.3821 34.1914 79.3821C33.3628 79.3821 32.6734 79.6075 32.1232 80.0582C31.5797 80.509 31.172 81.1155 30.9002 81.8778C30.6351 82.6335 30.5025 83.4787 30.5025 84.4134C30.5025 85.3414 30.6351 86.1832 30.9002 86.9389C31.172 87.6946 31.5797 88.2978 32.1232 88.7486C32.6734 89.1927 33.3628 89.4148 34.1914 89.4148ZM44.5447 92V76.7273H47.9851V79.3224H48.1641C48.4822 78.4474 49.0092 77.7647 49.745 77.2741C50.4808 76.777 51.3591 76.5284 52.38 76.5284C53.4141 76.5284 54.2857 76.7803 54.995 77.2841C55.7109 77.7812 56.2147 78.4607 56.5064 79.3224H56.6655C57.0036 78.474 57.5736 77.7978 58.3757 77.294C59.1844 76.7836 60.1423 76.5284 61.2493 76.5284C62.6546 76.5284 63.8014 76.9725 64.6896 77.8608C65.5779 78.7491 66.022 80.045 66.022 81.7486V92H62.4126V82.3054C62.4126 81.3575 62.1607 80.6648 61.657 80.2273C61.1532 79.7831 60.5367 79.5611 59.8075 79.5611C58.9392 79.5611 58.2597 79.8329 57.7692 80.3764C57.2853 80.9134 57.0433 81.6127 57.0433 82.4744V92H53.5135V82.1562C53.5135 81.3674 53.2749 80.7377 52.7976 80.267C52.3269 79.7964 51.7105 79.5611 50.9482 79.5611C50.4311 79.5611 49.9605 79.6937 49.5362 79.9588C49.112 80.2173 48.7739 80.5852 48.522 81.0625C48.2701 81.5331 48.1442 82.0833 48.1442 82.7131V92H44.5447ZM81.0636 92L75.3164 71.6364H79.2837L82.9528 86.6009H83.1417L87.0593 71.6364H90.6687L94.5962 86.6108H94.7752L98.4442 71.6364H102.412L96.6644 92H93.0252L88.9485 77.7116H88.7894L84.7028 92H81.0636ZM110.013 92.2983C108.482 92.2983 107.159 91.9801 106.046 91.3438C104.939 90.7008 104.087 89.7926 103.49 88.6193C102.894 87.4394 102.596 86.0507 102.596 84.4531C102.596 82.8821 102.894 81.5033 103.49 80.3168C104.094 79.1236 104.935 78.1955 106.016 77.5327C107.096 76.8632 108.366 76.5284 109.824 76.5284C110.766 76.5284 111.654 76.6809 112.489 76.9858C113.331 77.2841 114.073 77.7481 114.716 78.3778C115.366 79.0076 115.876 79.8097 116.248 80.7841C116.619 81.7519 116.804 82.9053 116.804 84.2443V85.348H104.286V82.9219H113.354C113.347 82.2325 113.198 81.6193 112.907 81.0824C112.615 80.5388 112.207 80.1113 111.684 79.7997C111.167 79.4882 110.563 79.3324 109.874 79.3324C109.138 79.3324 108.492 79.5114 107.935 79.8693C107.378 80.2206 106.944 80.6847 106.632 81.2614C106.328 81.8314 106.172 82.4579 106.165 83.1406V85.2585C106.165 86.1468 106.328 86.9091 106.652 87.5455C106.977 88.1752 107.431 88.6591 108.015 88.9972C108.598 89.3286 109.281 89.4943 110.063 89.4943C110.587 89.4943 111.06 89.4214 111.485 89.2756C111.909 89.1231 112.277 88.901 112.588 88.6094C112.9 88.3177 113.135 87.9564 113.294 87.5256L116.655 87.9034C116.443 88.7917 116.039 89.5672 115.442 90.2301C114.852 90.8864 114.096 91.3968 113.175 91.7614C112.254 92.1193 111.2 92.2983 110.013 92.2983ZM124.244 92.3082C123.277 92.3082 122.405 92.1359 121.629 91.7912C120.86 91.4399 120.25 90.9228 119.8 90.2401C119.356 89.5573 119.134 88.7154 119.134 87.7145C119.134 86.8527 119.293 86.1402 119.611 85.5767C119.929 85.0133 120.363 84.5625 120.913 84.2244C121.464 83.8864 122.083 83.6312 122.773 83.4588C123.469 83.2798 124.188 83.1506 124.93 83.071C125.825 82.9782 126.551 82.8954 127.108 82.8224C127.665 82.7429 128.069 82.6236 128.321 82.4645C128.58 82.2988 128.709 82.0436 128.709 81.6989V81.6392C128.709 80.8902 128.487 80.3101 128.043 79.8991C127.598 79.4882 126.959 79.2827 126.124 79.2827C125.242 79.2827 124.543 79.4749 124.026 79.8594C123.515 80.2438 123.17 80.6979 122.991 81.2216L119.631 80.7443C119.896 79.8163 120.333 79.0407 120.943 78.4176C121.553 77.7879 122.299 77.3172 123.18 77.0057C124.062 76.6875 125.036 76.5284 126.104 76.5284C126.839 76.5284 127.572 76.6146 128.301 76.7869C129.03 76.9593 129.696 77.2443 130.3 77.642C130.903 78.0331 131.387 78.5668 131.751 79.2429C132.123 79.919 132.308 80.7642 132.308 81.7784V92H128.848V89.902H128.729C128.51 90.3262 128.202 90.724 127.804 91.0952C127.413 91.4598 126.919 91.7547 126.322 91.9801C125.732 92.1989 125.04 92.3082 124.244 92.3082ZM125.179 89.6634C125.902 89.6634 126.528 89.5208 127.058 89.2358C127.589 88.9441 127.996 88.5597 128.281 88.0824C128.573 87.6051 128.719 87.0848 128.719 86.5213V84.7216C128.606 84.8144 128.414 84.9006 128.142 84.9801C127.877 85.0597 127.579 85.1293 127.247 85.1889C126.916 85.2486 126.588 85.3016 126.263 85.348C125.938 85.3944 125.656 85.4342 125.418 85.4673C124.881 85.5402 124.4 85.6596 123.976 85.8253C123.552 85.991 123.217 86.223 122.972 86.5213C122.726 86.813 122.604 87.1908 122.604 87.6548C122.604 88.3177 122.846 88.8182 123.33 89.1562C123.813 89.4943 124.43 89.6634 125.179 89.6634ZM135.928 92V76.7273H139.418V79.2727H139.577C139.855 78.3911 140.332 77.7116 141.009 77.2344C141.691 76.7505 142.47 76.5085 143.345 76.5085C143.544 76.5085 143.766 76.5185 144.011 76.5384C144.263 76.5516 144.472 76.5748 144.638 76.608V79.919C144.485 79.866 144.243 79.8196 143.912 79.7798C143.587 79.7334 143.272 79.7102 142.967 79.7102C142.311 79.7102 141.721 79.8527 141.197 80.1378C140.68 80.4162 140.273 80.804 139.974 81.3011C139.676 81.7983 139.527 82.3717 139.527 83.0213V92H135.928ZM151.151 92.3082C150.183 92.3082 149.311 92.1359 148.536 91.7912C147.767 91.4399 147.157 90.9228 146.706 90.2401C146.262 89.5573 146.04 88.7154 146.04 87.7145C146.04 86.8527 146.199 86.1402 146.517 85.5767C146.835 85.0133 147.269 84.5625 147.82 84.2244C148.37 83.8864 148.99 83.6312 149.679 83.4588C150.375 83.2798 151.094 83.1506 151.837 83.071C152.732 82.9782 153.457 82.8954 154.014 82.8224C154.571 82.7429 154.975 82.6236 155.227 82.4645C155.486 82.2988 155.615 82.0436 155.615 81.6989V81.6392C155.615 80.8902 155.393 80.3101 154.949 79.8991C154.505 79.4882 153.865 79.2827 153.03 79.2827C152.148 79.2827 151.449 79.4749 150.932 79.8594C150.421 80.2438 150.077 80.6979 149.898 81.2216L146.537 80.7443C146.802 79.8163 147.24 79.0407 147.849 78.4176C148.459 77.7879 149.205 77.3172 150.087 77.0057C150.968 76.6875 151.943 76.5284 153.01 76.5284C153.746 76.5284 154.478 76.6146 155.207 76.7869C155.937 76.9593 156.603 77.2443 157.206 77.642C157.809 78.0331 158.293 78.5668 158.658 79.2429C159.029 79.919 159.214 80.7642 159.214 81.7784V92H155.754V89.902H155.635C155.416 90.3262 155.108 90.724 154.71 91.0952C154.319 91.4598 153.825 91.7547 153.229 91.9801C152.639 92.1989 151.946 92.3082 151.151 92.3082ZM152.085 89.6634C152.808 89.6634 153.434 89.5208 153.964 89.2358C154.495 88.9441 154.902 88.5597 155.188 88.0824C155.479 87.6051 155.625 87.0848 155.625 86.5213V84.7216C155.512 84.8144 155.32 84.9006 155.048 84.9801C154.783 85.0597 154.485 85.1293 154.153 85.1889C153.822 85.2486 153.494 85.3016 153.169 85.348C152.844 85.3944 152.563 85.4342 152.324 85.4673C151.787 85.5402 151.306 85.6596 150.882 85.8253C150.458 85.991 150.123 86.223 149.878 86.5213C149.633 86.813 149.51 87.1908 149.51 87.6548C149.51 88.3177 149.752 88.8182 150.236 89.1562C150.72 89.4943 151.336 89.6634 152.085 89.6634ZM162.993 92V71.6364H166.592V79.2528H166.741C166.927 78.8816 167.189 78.4872 167.527 78.0696C167.865 77.6454 168.322 77.2841 168.899 76.9858C169.476 76.6809 170.212 76.5284 171.107 76.5284C172.286 76.5284 173.35 76.83 174.298 77.4332C175.253 78.0298 176.009 78.9148 176.565 80.0881C177.129 81.2547 177.411 82.6866 177.411 84.3835C177.411 86.0606 177.135 87.4858 176.585 88.6591C176.035 89.8324 175.286 90.7273 174.338 91.3438C173.39 91.9602 172.316 92.2685 171.116 92.2685C170.241 92.2685 169.516 92.1226 168.939 91.831C168.362 91.5393 167.898 91.188 167.547 90.777C167.202 90.3594 166.934 89.965 166.741 89.5938H166.533V92H162.993ZM166.523 84.3636C166.523 85.3513 166.662 86.2164 166.94 86.9588C167.225 87.7012 167.633 88.2812 168.163 88.6989C168.7 89.1098 169.35 89.3153 170.112 89.3153C170.908 89.3153 171.574 89.1032 172.111 88.679C172.648 88.2481 173.052 87.6615 173.324 86.919C173.602 86.17 173.741 85.3182 173.741 84.3636C173.741 83.4157 173.606 82.5739 173.334 81.8381C173.062 81.1023 172.658 80.5256 172.121 80.108C171.584 79.6903 170.914 79.4815 170.112 79.4815C169.343 79.4815 168.69 79.6837 168.153 80.0881C167.616 80.4924 167.209 81.0592 166.93 81.7884C166.659 82.5175 166.523 83.3759 166.523 84.3636ZM184.07 71.6364V92H180.471V71.6364H184.07ZM194.533 92.2983C193.001 92.2983 191.679 91.9801 190.565 91.3438C189.458 90.7008 188.607 89.7926 188.01 88.6193C187.413 87.4394 187.115 86.0507 187.115 84.4531C187.115 82.8821 187.413 81.5033 188.01 80.3168C188.613 79.1236 189.455 78.1955 190.536 77.5327C191.616 76.8632 192.885 76.5284 194.344 76.5284C195.285 76.5284 196.173 76.6809 197.009 76.9858C197.85 77.2841 198.593 77.7481 199.236 78.3778C199.885 79.0076 200.396 79.8097 200.767 80.7841C201.138 81.7519 201.324 82.9053 201.324 84.2443V85.348H188.805V82.9219H197.874C197.867 82.2325 197.718 81.6193 197.426 81.0824C197.134 80.5388 196.727 80.1113 196.203 79.7997C195.686 79.4882 195.083 79.3324 194.393 79.3324C193.658 79.3324 193.011 79.5114 192.455 79.8693C191.898 80.2206 191.464 80.6847 191.152 81.2614C190.847 81.8314 190.691 82.4579 190.685 83.1406V85.2585C190.685 86.1468 190.847 86.9091 191.172 87.5455C191.497 88.1752 191.951 88.6591 192.534 88.9972C193.117 89.3286 193.8 89.4943 194.582 89.4943C195.106 89.4943 195.58 89.4214 196.004 89.2756C196.429 89.1231 196.796 88.901 197.108 88.6094C197.42 88.3177 197.655 87.9564 197.814 87.5256L201.175 87.9034C200.963 88.7917 200.558 89.5672 199.962 90.2301C199.372 90.8864 198.616 91.3968 197.695 91.7614C196.773 92.1193 195.719 92.2983 194.533 92.2983ZM218.374 92H211.473V71.6364H218.513C220.535 71.6364 222.272 72.044 223.723 72.8594C225.182 73.6681 226.302 74.8314 227.084 76.3494C227.866 77.8674 228.257 79.6837 228.257 81.7983C228.257 83.9195 227.863 85.7424 227.074 87.267C226.292 88.7917 225.162 89.9616 223.684 90.777C222.212 91.5923 220.442 92 218.374 92ZM215.162 88.8082H218.195C219.614 88.8082 220.797 88.5497 221.745 88.0327C222.693 87.509 223.405 86.7301 223.882 85.696C224.36 84.6553 224.598 83.3561 224.598 81.7983C224.598 80.2405 224.36 78.9479 223.882 77.9205C223.405 76.8864 222.699 76.1141 221.765 75.6037C220.837 75.0866 219.683 74.8281 218.304 74.8281H215.162V88.8082ZM238.365 92.2983C236.833 92.2983 235.511 91.9801 234.397 91.3438C233.29 90.7008 232.439 89.7926 231.842 88.6193C231.245 87.4394 230.947 86.0507 230.947 84.4531C230.947 82.8821 231.245 81.5033 231.842 80.3168C232.445 79.1236 233.287 78.1955 234.368 77.5327C235.448 76.8632 236.717 76.5284 238.176 76.5284C239.117 76.5284 240.005 76.6809 240.841 76.9858C241.682 77.2841 242.425 77.7481 243.068 78.3778C243.717 79.0076 244.228 79.8097 244.599 80.7841C244.97 81.7519 245.156 82.9053 245.156 84.2443V85.348H232.637V82.9219H241.706C241.699 82.2325 241.55 81.6193 241.258 81.0824C240.967 80.5388 240.559 80.1113 240.035 79.7997C239.518 79.4882 238.915 79.3324 238.225 79.3324C237.49 79.3324 236.843 79.5114 236.287 79.8693C235.73 80.2206 235.296 80.6847 234.984 81.2614C234.679 81.8314 234.523 82.4579 234.517 83.1406V85.2585C234.517 86.1468 234.679 86.9091 235.004 87.5455C235.329 88.1752 235.783 88.6591 236.366 88.9972C236.949 89.3286 237.632 89.4943 238.414 89.4943C238.938 89.4943 239.412 89.4214 239.836 89.2756C240.261 89.1231 240.628 88.901 240.94 88.6094C241.252 88.3177 241.487 87.9564 241.646 87.5256L245.007 87.9034C244.795 88.7917 244.39 89.5672 243.794 90.2301C243.204 90.8864 242.448 91.3968 241.527 91.7614C240.605 92.1193 239.551 92.2983 238.365 92.2983ZM261.406 76.7273L255.967 92H251.989L246.55 76.7273H250.388L253.898 88.0724H254.058L257.577 76.7273H261.406ZM263.896 92V76.7273H267.496V92H263.896ZM265.706 74.5597C265.136 74.5597 264.645 74.3707 264.234 73.9929C263.823 73.6084 263.618 73.1477 263.618 72.6108C263.618 72.0672 263.823 71.6065 264.234 71.2287C264.645 70.8442 265.136 70.652 265.706 70.652C266.283 70.652 266.773 70.8442 267.178 71.2287C267.589 71.6065 267.794 72.0672 267.794 72.6108C267.794 73.1477 267.589 73.6084 267.178 73.9929C266.773 74.3707 266.283 74.5597 265.706 74.5597ZM277.859 92.2983C276.334 92.2983 275.025 91.9635 273.931 91.294C272.844 90.6245 272.006 89.6998 271.416 88.5199C270.833 87.3333 270.541 85.9678 270.541 84.4233C270.541 82.8722 270.839 81.5033 271.436 80.3168C272.032 79.1236 272.874 78.1955 273.961 77.5327C275.055 76.8632 276.348 76.5284 277.839 76.5284C279.079 76.5284 280.176 76.7571 281.13 77.2145C282.092 77.6652 282.857 78.3049 283.427 79.1335C283.997 79.9555 284.322 80.9167 284.402 82.017H280.961C280.822 81.2812 280.491 80.6681 279.967 80.1776C279.45 79.6804 278.757 79.4318 277.889 79.4318C277.153 79.4318 276.507 79.6307 275.95 80.0284C275.393 80.4195 274.959 80.983 274.647 81.7188C274.342 82.4545 274.19 83.3362 274.19 84.3636C274.19 85.4044 274.342 86.2992 274.647 87.0483C274.952 87.7907 275.38 88.3641 275.93 88.7685C276.487 89.1662 277.14 89.3651 277.889 89.3651C278.419 89.3651 278.893 89.2656 279.311 89.0668C279.735 88.8613 280.09 88.5663 280.375 88.1818C280.66 87.7973 280.855 87.33 280.961 86.7798H284.402C284.315 87.8603 283.997 88.8182 283.447 89.6534C282.897 90.482 282.148 91.1316 281.2 91.6023C280.252 92.0663 279.138 92.2983 277.859 92.2983ZM294.119 92.2983C292.587 92.2983 291.265 91.9801 290.151 91.3438C289.044 90.7008 288.192 89.7926 287.596 88.6193C286.999 87.4394 286.701 86.0507 286.701 84.4531C286.701 82.8821 286.999 81.5033 287.596 80.3168C288.199 79.1236 289.041 78.1955 290.121 77.5327C291.202 76.8632 292.471 76.5284 293.93 76.5284C294.871 76.5284 295.759 76.6809 296.594 76.9858C297.436 77.2841 298.179 77.7481 298.822 78.3778C299.471 79.0076 299.982 79.8097 300.353 80.7841C300.724 81.7519 300.91 82.9053 300.91 84.2443V85.348H288.391V82.9219H297.46C297.453 82.2325 297.304 81.6193 297.012 81.0824C296.72 80.5388 296.313 80.1113 295.789 79.7997C295.272 79.4882 294.669 79.3324 293.979 79.3324C293.244 79.3324 292.597 79.5114 292.04 79.8693C291.484 80.2206 291.049 80.6847 290.738 81.2614C290.433 81.8314 290.277 82.4579 290.271 83.1406V85.2585C290.271 86.1468 290.433 86.9091 290.758 87.5455C291.083 88.1752 291.537 88.6591 292.12 88.9972C292.703 89.3286 293.386 89.4943 294.168 89.4943C294.692 89.4943 295.166 89.4214 295.59 89.2756C296.014 89.1231 296.382 88.901 296.694 88.6094C297.005 88.3177 297.241 87.9564 297.4 87.5256L300.761 87.9034C300.549 88.7917 300.144 89.5672 299.548 90.2301C298.958 90.8864 298.202 91.3968 297.281 91.7614C296.359 92.1193 295.305 92.2983 294.119 92.2983ZM316.026 80.7642L312.745 81.1222C312.652 80.7907 312.489 80.4792 312.257 80.1875C312.032 79.8958 311.727 79.6605 311.343 79.4815C310.958 79.3026 310.488 79.2131 309.931 79.2131C309.182 79.2131 308.552 79.3755 308.042 79.7003C307.538 80.0251 307.289 80.446 307.296 80.9631C307.289 81.4072 307.452 81.7685 307.783 82.0469C308.121 82.3253 308.678 82.554 309.453 82.733L312.059 83.2898C313.504 83.6013 314.578 84.0952 315.28 84.7713C315.989 85.4474 316.347 86.3324 316.354 87.4261C316.347 88.3873 316.066 89.2358 315.509 89.9716C314.959 90.7008 314.193 91.2708 313.212 91.6818C312.231 92.0928 311.104 92.2983 309.831 92.2983C307.962 92.2983 306.457 91.9072 305.317 91.125C304.177 90.3362 303.498 89.2391 303.279 87.8338L306.789 87.4957C306.948 88.1851 307.286 88.7055 307.803 89.0568C308.32 89.4081 308.993 89.5838 309.821 89.5838C310.676 89.5838 311.363 89.4081 311.88 89.0568C312.403 88.7055 312.665 88.2713 312.665 87.7543C312.665 87.3168 312.496 86.9555 312.158 86.6705C311.827 86.3854 311.31 86.1667 310.607 86.0142L308.002 85.4673C306.537 85.1624 305.453 84.6487 304.75 83.9261C304.048 83.197 303.7 82.2756 303.706 81.1619C303.7 80.2206 303.955 79.4053 304.472 78.7159C304.996 78.0199 305.721 77.483 306.65 77.1051C307.584 76.7206 308.661 76.5284 309.881 76.5284C311.671 76.5284 313.079 76.9096 314.107 77.6719C315.141 78.4342 315.781 79.465 316.026 80.7642ZM333.894 76.7273V79.5114H325.114V76.7273H333.894ZM327.282 73.0682H330.881V87.4062C330.881 87.8902 330.954 88.2614 331.1 88.5199C331.252 88.7718 331.451 88.9441 331.696 89.0369C331.942 89.1297 332.213 89.1761 332.512 89.1761C332.737 89.1761 332.943 89.1596 333.128 89.1264C333.32 89.0933 333.466 89.0634 333.566 89.0369L334.172 91.8509C333.98 91.9171 333.705 91.9901 333.347 92.0696C332.996 92.1491 332.565 92.1955 332.054 92.2088C331.153 92.2353 330.341 92.0994 329.618 91.8011C328.896 91.4962 328.322 91.0256 327.898 90.3892C327.48 89.7528 327.275 88.9574 327.282 88.0028V73.0682ZM343.402 92.2983C341.911 92.2983 340.618 91.9702 339.524 91.3139C338.43 90.6577 337.582 89.7396 336.979 88.5597C336.382 87.3797 336.084 86.0009 336.084 84.4233C336.084 82.8456 336.382 81.4635 336.979 80.277C337.582 79.0904 338.43 78.169 339.524 77.5128C340.618 76.8565 341.911 76.5284 343.402 76.5284C344.893 76.5284 346.186 76.8565 347.28 77.5128C348.374 78.169 349.219 79.0904 349.815 80.277C350.419 81.4635 350.72 82.8456 350.72 84.4233C350.72 86.0009 350.419 87.3797 349.815 88.5597C349.219 89.7396 348.374 90.6577 347.28 91.3139C346.186 91.9702 344.893 92.2983 343.402 92.2983ZM343.422 89.4148C344.231 89.4148 344.907 89.1927 345.45 88.7486C345.994 88.2978 346.398 87.6946 346.663 86.9389C346.935 86.1832 347.071 85.3414 347.071 84.4134C347.071 83.4787 346.935 82.6335 346.663 81.8778C346.398 81.1155 345.994 80.509 345.45 80.0582C344.907 79.6075 344.231 79.3821 343.422 79.3821C342.593 79.3821 341.904 79.6075 341.354 80.0582C340.81 80.509 340.402 81.1155 340.131 81.8778C339.866 82.6335 339.733 83.4787 339.733 84.4134C339.733 85.3414 339.866 86.1832 340.131 86.9389C340.402 87.6946 340.81 88.2978 341.354 88.7486C341.904 89.1927 342.593 89.4148 343.422 89.4148ZM367.78 92H360.88V71.6364H367.919C369.941 71.6364 371.678 72.044 373.13 72.8594C374.588 73.6681 375.708 74.8314 376.49 76.3494C377.273 77.8674 377.664 79.6837 377.664 81.7983C377.664 83.9195 377.269 85.7424 376.48 87.267C375.698 88.7917 374.568 89.9616 373.09 90.777C371.618 91.5923 369.848 92 367.78 92ZM364.569 88.8082H367.601C369.02 88.8082 370.203 88.5497 371.151 88.0327C372.099 87.509 372.811 86.7301 373.289 85.696C373.766 84.6553 374.005 83.3561 374.005 81.7983C374.005 80.2405 373.766 78.9479 373.289 77.9205C372.811 76.8864 372.105 76.1141 371.171 75.6037C370.243 75.0866 369.089 74.8281 367.711 74.8281H364.569V88.8082ZM387.672 92.2983C386.18 92.2983 384.887 91.9702 383.794 91.3139C382.7 90.6577 381.851 89.7396 381.248 88.5597C380.652 87.3797 380.353 86.0009 380.353 84.4233C380.353 82.8456 380.652 81.4635 381.248 80.277C381.851 79.0904 382.7 78.169 383.794 77.5128C384.887 76.8565 386.18 76.5284 387.672 76.5284C389.163 76.5284 390.456 76.8565 391.549 77.5128C392.643 78.169 393.488 79.0904 394.085 80.277C394.688 81.4635 394.99 82.8456 394.99 84.4233C394.99 86.0009 394.688 87.3797 394.085 88.5597C393.488 89.7396 392.643 90.6577 391.549 91.3139C390.456 91.9702 389.163 92.2983 387.672 92.2983ZM387.691 89.4148C388.5 89.4148 389.176 89.1927 389.72 88.7486C390.263 88.2978 390.668 87.6946 390.933 86.9389C391.205 86.1832 391.341 85.3414 391.341 84.4134C391.341 83.4787 391.205 82.6335 390.933 81.8778C390.668 81.1155 390.263 80.509 389.72 80.0582C389.176 79.6075 388.5 79.3821 387.691 79.3821C386.863 79.3821 386.173 79.6075 385.623 80.0582C385.08 80.509 384.672 81.1155 384.4 81.8778C384.135 82.6335 384.002 83.4787 384.002 84.4134C384.002 85.3414 384.135 86.1832 384.4 86.9389C384.672 87.6946 385.08 88.2978 385.623 88.7486C386.173 89.1927 386.863 89.4148 387.691 89.4148ZM404.707 92.2983C403.182 92.2983 401.873 91.9635 400.779 91.294C399.692 90.6245 398.853 89.6998 398.263 88.5199C397.68 87.3333 397.388 85.9678 397.388 84.4233C397.388 82.8722 397.687 81.5033 398.283 80.3168C398.88 79.1236 399.722 78.1955 400.809 77.5327C401.903 76.8632 403.195 76.5284 404.687 76.5284C405.926 76.5284 407.023 76.7571 407.978 77.2145C408.939 77.6652 409.705 78.3049 410.275 79.1335C410.845 79.9555 411.17 80.9167 411.249 82.017H407.809C407.67 81.2812 407.338 80.6681 406.815 80.1776C406.298 79.6804 405.605 79.4318 404.737 79.4318C404.001 79.4318 403.354 79.6307 402.798 80.0284C402.241 80.4195 401.807 80.983 401.495 81.7188C401.19 82.4545 401.038 83.3362 401.038 84.3636C401.038 85.4044 401.19 86.2992 401.495 87.0483C401.8 87.7907 402.228 88.3641 402.778 88.7685C403.335 89.1662 403.987 89.3651 404.737 89.3651C405.267 89.3651 405.741 89.2656 406.158 89.0668C406.583 88.8613 406.937 88.5663 407.222 88.1818C407.507 87.7973 407.703 87.33 407.809 86.7798H411.249C411.163 87.8603 410.845 88.8182 410.295 89.6534C409.745 90.482 408.996 91.1316 408.048 91.6023C407.1 92.0663 405.986 92.2983 404.707 92.2983ZM421.831 76.7273V79.5114H413.051V76.7273H421.831ZM415.219 73.0682H418.819V87.4062C418.819 87.8902 418.891 88.2614 419.037 88.5199C419.19 88.7718 419.389 88.9441 419.634 89.0369C419.879 89.1297 420.151 89.1761 420.449 89.1761C420.675 89.1761 420.88 89.1596 421.066 89.1264C421.258 89.0933 421.404 89.0634 421.503 89.0369L422.11 91.8509C421.917 91.9171 421.642 91.9901 421.284 92.0696C420.933 92.1491 420.502 92.1955 419.992 92.2088C419.09 92.2353 418.278 92.0994 417.556 91.8011C416.833 91.4962 416.26 91.0256 415.836 90.3892C415.418 89.7528 415.212 88.9574 415.219 88.0028V73.0682ZM431.339 92.2983C429.848 92.2983 428.555 91.9702 427.462 91.3139C426.368 90.6577 425.519 89.7396 424.916 88.5597C424.32 87.3797 424.021 86.0009 424.021 84.4233C424.021 82.8456 424.32 81.4635 424.916 80.277C425.519 79.0904 426.368 78.169 427.462 77.5128C428.555 76.8565 429.848 76.5284 431.339 76.5284C432.831 76.5284 434.124 76.8565 435.217 77.5128C436.311 78.169 437.156 79.0904 437.753 80.277C438.356 81.4635 438.658 82.8456 438.658 84.4233C438.658 86.0009 438.356 87.3797 437.753 88.5597C437.156 89.7396 436.311 90.6577 435.217 91.3139C434.124 91.9702 432.831 92.2983 431.339 92.2983ZM431.359 89.4148C432.168 89.4148 432.844 89.1927 433.388 88.7486C433.931 88.2978 434.336 87.6946 434.601 86.9389C434.873 86.1832 435.009 85.3414 435.009 84.4134C435.009 83.4787 434.873 82.6335 434.601 81.8778C434.336 81.1155 433.931 80.509 433.388 80.0582C432.844 79.6075 432.168 79.3821 431.359 79.3821C430.531 79.3821 429.841 79.6075 429.291 80.0582C428.748 80.509 428.34 81.1155 428.068 81.8778C427.803 82.6335 427.67 83.4787 427.67 84.4134C427.67 85.3414 427.803 86.1832 428.068 86.9389C428.34 87.6946 428.748 88.2978 429.291 88.7486C429.841 89.1927 430.531 89.4148 431.359 89.4148ZM441.713 92V76.7273H445.203V79.2727H445.362C445.64 78.3911 446.118 77.7116 446.794 77.2344C447.476 76.7505 448.255 76.5085 449.13 76.5085C449.329 76.5085 449.551 76.5185 449.797 76.5384C450.048 76.5516 450.257 76.5748 450.423 76.608V79.919C450.27 79.866 450.029 79.8196 449.697 79.7798C449.372 79.7334 449.057 79.7102 448.752 79.7102C448.096 79.7102 447.506 79.8527 446.983 80.1378C446.466 80.4162 446.058 80.804 445.76 81.3011C445.461 81.7983 445.312 82.3717 445.312 83.0213V92H441.713ZM476.653 71.6364V92H473.372L463.777 78.1293H463.608V92H459.919V71.6364H463.22L472.805 85.517H472.984V71.6364H476.653ZM487.275 92.2983C485.744 92.2983 484.421 91.9801 483.308 91.3438C482.201 90.7008 481.349 89.7926 480.752 88.6193C480.156 87.4394 479.857 86.0507 479.857 84.4531C479.857 82.8821 480.156 81.5033 480.752 80.3168C481.355 79.1236 482.197 78.1955 483.278 77.5327C484.358 76.8632 485.628 76.5284 487.086 76.5284C488.027 76.5284 488.915 76.6809 489.751 76.9858C490.593 77.2841 491.335 77.7481 491.978 78.3778C492.628 79.0076 493.138 79.8097 493.509 80.7841C493.88 81.7519 494.066 82.9053 494.066 84.2443V85.348H481.548V82.9219H490.616C490.609 82.2325 490.46 81.6193 490.168 81.0824C489.877 80.5388 489.469 80.1113 488.945 79.7997C488.428 79.4882 487.825 79.3324 487.136 79.3324C486.4 79.3324 485.754 79.5114 485.197 79.8693C484.64 80.2206 484.206 80.6847 483.894 81.2614C483.589 81.8314 483.433 82.4579 483.427 83.1406V85.2585C483.427 86.1468 483.589 86.9091 483.914 87.5455C484.239 88.1752 484.693 88.6591 485.276 88.9972C485.86 89.3286 486.542 89.4943 487.325 89.4943C487.848 89.4943 488.322 89.4214 488.746 89.2756C489.171 89.1231 489.539 88.901 489.85 88.6094C490.162 88.3177 490.397 87.9564 490.556 87.5256L493.917 87.9034C493.705 88.7917 493.3 89.5672 492.704 90.2301C492.114 90.8864 491.358 91.3968 490.437 91.7614C489.515 92.1193 488.461 92.2983 487.275 92.2983ZM504.738 76.7273V79.5114H495.958V76.7273H504.738ZM498.125 73.0682H501.725V87.4062C501.725 87.8902 501.798 88.2614 501.944 88.5199C502.096 88.7718 502.295 88.9441 502.54 89.0369C502.785 89.1297 503.057 89.1761 503.355 89.1761C503.581 89.1761 503.786 89.1596 503.972 89.1264C504.164 89.0933 504.31 89.0634 504.409 89.0369L505.016 91.8509C504.824 91.9171 504.549 91.9901 504.191 92.0696C503.839 92.1491 503.408 92.1955 502.898 92.2088C501.997 92.2353 501.185 92.0994 500.462 91.8011C499.739 91.4962 499.166 91.0256 498.742 90.3892C498.324 89.7528 498.119 88.9574 498.125 88.0028V73.0682ZM510.9 92L506.585 76.7273H510.254L512.938 87.4659H513.077L515.822 76.7273H519.451L522.195 87.4062H522.344L524.989 76.7273H528.668L524.343 92H520.594L517.731 81.679H517.522L514.658 92H510.9ZM537.406 92.2983C535.914 92.2983 534.622 91.9702 533.528 91.3139C532.434 90.6577 531.586 89.7396 530.983 88.5597C530.386 87.3797 530.088 86.0009 530.088 84.4233C530.088 82.8456 530.386 81.4635 530.983 80.277C531.586 79.0904 532.434 78.169 533.528 77.5128C534.622 76.8565 535.914 76.5284 537.406 76.5284C538.897 76.5284 540.19 76.8565 541.284 77.5128C542.377 78.169 543.223 79.0904 543.819 80.277C544.422 81.4635 544.724 82.8456 544.724 84.4233C544.724 86.0009 544.422 87.3797 543.819 88.5597C543.223 89.7396 542.377 90.6577 541.284 91.3139C540.19 91.9702 538.897 92.2983 537.406 92.2983ZM537.426 89.4148C538.234 89.4148 538.911 89.1927 539.454 88.7486C539.998 88.2978 540.402 87.6946 540.667 86.9389C540.939 86.1832 541.075 85.3414 541.075 84.4134C541.075 83.4787 540.939 82.6335 540.667 81.8778C540.402 81.1155 539.998 80.509 539.454 80.0582C538.911 79.6075 538.234 79.3821 537.426 79.3821C536.597 79.3821 535.908 79.6075 535.358 80.0582C534.814 80.509 534.406 81.1155 534.135 81.8778C533.869 82.6335 533.737 83.4787 533.737 84.4134C533.737 85.3414 533.869 86.1832 534.135 86.9389C534.406 87.6946 534.814 88.2978 535.358 88.7486C535.908 89.1927 536.597 89.4148 537.426 89.4148ZM547.779 92V76.7273H551.269V79.2727H551.428C551.707 78.3911 552.184 77.7116 552.86 77.2344C553.543 76.7505 554.322 76.5085 555.197 76.5085C555.396 76.5085 555.618 76.5185 555.863 76.5384C556.115 76.5516 556.324 76.5748 556.489 76.608V79.919C556.337 79.866 556.095 79.8196 555.763 79.7798C555.439 79.7334 555.124 79.7102 554.819 79.7102C554.163 79.7102 553.573 79.8527 553.049 80.1378C552.532 80.4162 552.124 80.804 551.826 81.3011C551.528 81.7983 551.379 82.3717 551.379 83.0213V92H547.779ZM562.162 87.2074L562.152 82.8622H562.729L568.217 76.7273H572.423L565.672 84.2443H564.926L562.162 87.2074ZM558.881 92V71.6364H562.48V92H558.881ZM568.466 92L563.494 85.0497L565.92 82.5142L572.771 92H568.466ZM586.893 80.7642L583.612 81.1222C583.519 80.7907 583.357 80.4792 583.125 80.1875C582.899 79.8958 582.594 79.6605 582.21 79.4815C581.825 79.3026 581.355 79.2131 580.798 79.2131C580.049 79.2131 579.419 79.3755 578.909 79.7003C578.405 80.0251 578.156 80.446 578.163 80.9631C578.156 81.4072 578.319 81.7685 578.65 82.0469C578.988 82.3253 579.545 82.554 580.321 82.733L582.926 83.2898C584.371 83.6013 585.445 84.0952 586.147 84.7713C586.857 85.4474 587.215 86.3324 587.221 87.4261C587.215 88.3873 586.933 89.2358 586.376 89.9716C585.826 90.7008 585.06 91.2708 584.079 91.6818C583.098 92.0928 581.971 92.2983 580.699 92.2983C578.829 92.2983 577.324 91.9072 576.184 91.125C575.044 90.3362 574.365 89.2391 574.146 87.8338L577.656 87.4957C577.815 88.1851 578.153 88.7055 578.67 89.0568C579.187 89.4081 579.86 89.5838 580.689 89.5838C581.544 89.5838 582.23 89.4081 582.747 89.0568C583.27 88.7055 583.532 88.2713 583.532 87.7543C583.532 87.3168 583.363 86.9555 583.025 86.6705C582.694 86.3854 582.177 86.1667 581.474 86.0142L578.869 85.4673C577.404 85.1624 576.32 84.6487 575.618 83.9261C574.915 83.197 574.567 82.2756 574.574 81.1619C574.567 80.2206 574.822 79.4053 575.339 78.7159C575.863 78.0199 576.589 77.483 577.517 77.1051C578.451 76.7206 579.529 76.5284 580.748 76.5284C582.538 76.5284 583.947 76.9096 584.974 77.6719C586.008 78.4342 586.648 79.465 586.893 80.7642Z" fill="#F0EBE6"/>
<path d="M674.036 39V2.63636H681.724V18.6697H682.203L695.289 2.63636H704.504L691.01 18.9183L704.664 39H695.467L685.506 24.0497L681.724 28.6662V39H674.036ZM718.793 39.5327C715.988 39.5327 713.573 38.9645 711.549 37.8281C709.537 36.6799 707.986 35.0582 706.897 32.9631C705.808 30.8561 705.263 28.3643 705.263 25.4879C705.263 22.6825 705.808 20.2204 706.897 18.1016C707.986 15.9827 709.519 14.3314 711.496 13.1477C713.484 11.964 715.816 11.3722 718.491 11.3722C720.291 11.3722 721.965 11.6622 723.516 12.2422C725.079 12.8104 726.44 13.6686 727.6 14.8168C728.772 15.965 729.683 17.4091 730.334 19.1491C730.985 20.8774 731.311 22.9015 731.311 25.2216V27.299H708.282V22.6115H724.191C724.191 21.5225 723.954 20.5578 723.481 19.7173C723.007 18.8769 722.35 18.2199 721.51 17.7464C720.681 17.2611 719.716 17.0185 718.616 17.0185C717.467 17.0185 716.449 17.2848 715.562 17.8175C714.686 18.3383 713.999 19.0426 713.502 19.9304C713.005 20.8063 712.75 21.7829 712.738 22.8601V27.3168C712.738 28.6662 712.987 29.8321 713.484 30.8146C713.993 31.7971 714.709 32.5547 715.633 33.0874C716.556 33.62 717.651 33.8864 718.917 33.8864C719.758 33.8864 720.527 33.768 721.226 33.5312C721.924 33.2945 722.522 32.9394 723.019 32.4659C723.516 31.9924 723.895 31.4124 724.155 30.7259L731.151 31.1875C730.796 32.8684 730.068 34.3362 728.967 35.5909C727.878 36.8338 726.47 37.8045 724.741 38.5028C723.025 39.1894 721.042 39.5327 718.793 39.5327ZM740.184 49.2273C739.225 49.2273 738.326 49.1503 737.485 48.9964C736.657 48.8544 735.97 48.6709 735.426 48.446L737.13 42.7997C738.018 43.072 738.817 43.2199 739.527 43.2436C740.249 43.2673 740.871 43.1016 741.392 42.7464C741.924 42.3913 742.356 41.7876 742.688 40.9354L743.132 39.7812L733.348 11.7273H741.303L746.949 31.7557H747.233L752.933 11.7273H760.941L750.341 41.9474C749.832 43.4152 749.139 44.6937 748.263 45.7827C747.399 46.8835 746.304 47.7299 744.978 48.3217C743.653 48.9254 742.055 49.2273 740.184 49.2273Z" fill="url(#paint0_linear_324_238)"/>
<defs>
<linearGradient id="paint0_linear_324_238" x1="412.5" y1="-3" x2="412.5" y2="106" gradientUnits="userSpaceOnUse">
<stop stop-color="#FFA600"/>
<stop offset="1" stop-color="#FF6361"/>
</linearGradient>
</defs>
</svg>
