<svg width="454" height="93" viewBox="0 0 454 93" fill="none" xmlns="http://www.w3.org/2000/svg">
<path d="M11.3459 39L0.941051 2.63636H9.33949L15.3587 27.9027H15.6605L22.3011 2.63636H29.4922L36.1151 27.956H36.4347L42.4538 2.63636H50.8523L40.4474 39H32.9545L26.0298 15.2251H25.7457L18.8388 39H11.3459ZM62.389 23.233V39H54.8251V2.63636H62.176V16.5391H62.4956C63.1111 14.9292 64.1054 13.6686 65.4785 12.7571C66.8516 11.8338 68.5739 11.3722 70.6454 11.3722C72.5394 11.3722 74.1906 11.7865 75.5993 12.6151C77.0197 13.4318 78.1206 14.6096 78.9018 16.1484C79.6949 17.6754 80.0855 19.5043 80.0737 21.6349V39H72.5098V22.9844C72.5216 21.3035 72.0955 19.9955 71.2314 19.0604C70.3791 18.1252 69.1835 17.6577 67.6447 17.6577C66.6149 17.6577 65.7034 17.8767 64.9103 18.3146C64.1291 18.7526 63.5136 19.3918 63.0637 20.2322C62.6258 21.0608 62.4009 22.0611 62.389 23.233ZM93.8033 39.5149C92.0632 39.5149 90.5125 39.2131 89.1513 38.6094C87.79 37.9938 86.7128 37.0883 85.9197 35.8928C85.1385 34.6854 84.7479 33.1821 84.7479 31.3828C84.7479 29.8677 85.026 28.5952 85.5824 27.5653C86.1387 26.5355 86.8963 25.7069 87.8551 25.0795C88.8139 24.4522 89.9029 23.9787 91.1222 23.6591C92.3532 23.3395 93.6435 23.1146 94.9929 22.9844C96.5791 22.8187 97.8575 22.6648 98.8281 22.5227C99.7988 22.3688 100.503 22.1439 100.941 21.848C101.379 21.5521 101.598 21.1141 101.598 20.5341V20.4276C101.598 19.303 101.243 18.433 100.533 17.8175C99.8343 17.2019 98.84 16.8942 97.5497 16.8942C96.1884 16.8942 95.1054 17.196 94.3004 17.7997C93.4955 18.3916 92.9628 19.1373 92.7024 20.0369L85.7067 19.4688C86.0618 17.8116 86.7602 16.3793 87.8018 15.1719C88.8435 13.9527 90.187 13.0175 91.8324 12.3665C93.4896 11.7036 95.4072 11.3722 97.5852 11.3722C99.1004 11.3722 100.55 11.5497 101.935 11.9048C103.332 12.2599 104.569 12.8104 105.646 13.5561C106.735 14.3018 107.594 15.2607 108.221 16.4325C108.848 17.5926 109.162 18.9834 109.162 20.6051V39H101.989V35.218H101.776C101.338 36.0703 100.752 36.822 100.018 37.473C99.2839 38.1122 98.402 38.6153 97.3722 38.9822C96.3423 39.3374 95.1527 39.5149 93.8033 39.5149ZM95.9695 34.2947C97.0822 34.2947 98.0646 34.0758 98.9169 33.6378C99.7692 33.188 100.438 32.5843 100.923 31.8267C101.409 31.0691 101.651 30.2109 101.651 29.2521V26.358C101.415 26.5118 101.089 26.6539 100.675 26.7841C100.272 26.9025 99.8165 27.0149 99.3075 27.1214C98.7985 27.2161 98.2895 27.3049 97.7805 27.3878C97.2715 27.4588 96.8099 27.5239 96.3956 27.5831C95.5078 27.7133 94.7325 27.9205 94.0696 28.2045C93.4067 28.4886 92.8918 28.8733 92.5249 29.3587C92.1579 29.8321 91.9744 30.424 91.9744 31.1342C91.9744 32.1641 92.3473 32.9512 93.093 33.4957C93.8506 34.0284 94.8094 34.2947 95.9695 34.2947ZM129.537 11.7273V17.4091H113.113V11.7273H129.537ZM116.841 5.19318H124.405V30.6193C124.405 31.3177 124.512 31.8622 124.725 32.2528C124.938 32.6316 125.234 32.898 125.613 33.0518C126.003 33.2057 126.453 33.2827 126.962 33.2827C127.317 33.2827 127.672 33.2531 128.027 33.1939C128.382 33.1229 128.655 33.0696 128.844 33.0341L130.034 38.6626C129.655 38.781 129.122 38.9171 128.436 39.071C127.749 39.2367 126.915 39.3374 125.932 39.3729C124.109 39.4439 122.511 39.2012 121.138 38.6449C119.777 38.0885 118.717 37.2244 117.96 36.0526C117.202 34.8807 116.829 33.401 116.841 31.6136V5.19318ZM146.036 39V11.7273H153.6V39H146.036ZM149.836 8.21165C148.711 8.21165 147.747 7.83878 146.942 7.09304C146.148 6.33546 145.752 5.42992 145.752 4.37642C145.752 3.33475 146.148 2.44105 146.942 1.69531C147.747 0.937735 148.711 0.558947 149.836 0.558947C150.96 0.558947 151.919 0.937735 152.712 1.69531C153.517 2.44105 153.92 3.33475 153.92 4.37642C153.92 5.42992 153.517 6.33546 152.712 7.09304C151.919 7.83878 150.96 8.21165 149.836 8.21165ZM182.351 19.5043L175.426 19.9304C175.308 19.3385 175.053 18.8059 174.663 18.3324C174.272 17.8471 173.757 17.4624 173.118 17.1783C172.491 16.8823 171.739 16.7344 170.863 16.7344C169.691 16.7344 168.703 16.983 167.898 17.4801C167.093 17.9654 166.69 18.6165 166.69 19.4332C166.69 20.0843 166.951 20.6347 167.472 21.0845C167.992 21.5343 168.886 21.8954 170.153 22.1676L175.089 23.1619C177.74 23.7064 179.717 24.5824 181.019 25.7898C182.321 26.9972 182.972 28.5833 182.972 30.5483C182.972 32.3357 182.446 33.9041 181.392 35.2536C180.35 36.603 178.918 37.6565 177.095 38.4141C175.284 39.1598 173.195 39.5327 170.827 39.5327C167.217 39.5327 164.341 38.781 162.198 37.2777C160.067 35.7625 158.819 33.7029 158.452 31.0987L165.891 30.7081C166.116 31.8089 166.661 32.6494 167.525 33.2294C168.389 33.7976 169.496 34.0817 170.845 34.0817C172.171 34.0817 173.236 33.8272 174.041 33.3182C174.858 32.7973 175.272 32.1286 175.284 31.3118C175.272 30.6252 174.982 30.063 174.414 29.625C173.846 29.1752 172.97 28.8319 171.786 28.5952L167.063 27.6541C164.4 27.1214 162.417 26.1982 161.115 24.8842C159.825 23.5703 159.18 21.8954 159.18 19.8594C159.18 18.1075 159.653 16.5982 160.6 15.3317C161.559 14.0651 162.902 13.0885 164.631 12.402C166.371 11.7154 168.407 11.3722 170.739 11.3722C174.183 11.3722 176.894 12.1001 178.871 13.5561C180.859 15.0121 182.019 16.9948 182.351 19.5043ZM199.45 2.63636H208.931L218.945 27.0682H219.371L229.386 2.63636H238.867V39H231.41V15.3317H231.108L221.697 38.8224H216.619L207.209 15.2429H206.907V39H199.45V2.63636ZM257.488 39.5327C254.683 39.5327 252.268 38.9645 250.244 37.8281C248.232 36.6799 246.681 35.0582 245.592 32.9631C244.503 30.8561 243.959 28.3643 243.959 25.4879C243.959 22.6825 244.503 20.2204 245.592 18.1016C246.681 15.9827 248.214 14.3314 250.191 13.1477C252.18 11.964 254.511 11.3722 257.187 11.3722C258.986 11.3722 260.661 11.6622 262.211 12.2422C263.774 12.8104 265.135 13.6686 266.295 14.8168C267.467 15.965 268.379 17.4091 269.03 19.1491C269.681 20.8774 270.006 22.9015 270.006 25.2216V27.299H246.977V22.6115H262.886C262.886 21.5225 262.649 20.5578 262.176 19.7173C261.702 18.8769 261.046 18.2199 260.205 17.7464C259.376 17.2611 258.412 17.0185 257.311 17.0185C256.163 17.0185 255.145 17.2848 254.257 17.8175C253.381 18.3383 252.694 19.0426 252.197 19.9304C251.7 20.8063 251.446 21.7829 251.434 22.8601V27.3168C251.434 28.6662 251.682 29.8321 252.18 30.8146C252.689 31.7971 253.405 32.5547 254.328 33.0874C255.251 33.62 256.346 33.8864 257.613 33.8864C258.453 33.8864 259.223 33.768 259.921 33.5312C260.619 33.2945 261.217 32.9394 261.714 32.4659C262.211 31.9924 262.59 31.4124 262.851 30.7259L269.846 31.1875C269.491 32.8684 268.763 34.3362 267.662 35.5909C266.573 36.8338 265.165 37.8045 263.437 38.5028C261.72 39.1894 259.738 39.5327 257.488 39.5327ZM284.992 39.4439C282.921 39.4439 281.044 38.9112 279.363 37.8459C277.694 36.7687 276.369 35.1884 275.386 33.1051C274.416 31.0099 273.93 28.4413 273.93 25.3991C273.93 22.2741 274.433 19.6759 275.439 17.6044C276.446 15.5211 277.783 13.9645 279.452 12.9347C281.133 11.893 282.974 11.3722 284.974 11.3722C286.501 11.3722 287.774 11.6326 288.792 12.1534C289.822 12.6624 290.65 13.3016 291.278 14.071C291.917 14.8286 292.402 15.5743 292.733 16.3082H292.964V2.63636H300.51V39H293.053V34.6321H292.733C292.378 35.3897 291.875 36.1413 291.224 36.8871C290.585 37.621 289.751 38.2306 288.721 38.7159C287.703 39.2012 286.46 39.4439 284.992 39.4439ZM287.389 33.4247C288.608 33.4247 289.638 33.0933 290.479 32.4304C291.331 31.7557 291.982 30.8146 292.432 29.6072C292.893 28.3999 293.124 26.9853 293.124 25.3636C293.124 23.742 292.899 22.3333 292.449 21.1378C292 19.9422 291.349 19.0189 290.496 18.3679C289.644 17.7169 288.608 17.3913 287.389 17.3913C286.146 17.3913 285.099 17.7287 284.246 18.4034C283.394 19.0781 282.749 20.0133 282.311 21.2088C281.873 22.4044 281.654 23.7893 281.654 25.3636C281.654 26.9498 281.873 28.3525 282.311 29.5717C282.761 30.7791 283.406 31.7261 284.246 32.4126C285.099 33.0874 286.146 33.4247 287.389 33.4247ZM306.729 39V11.7273H314.293V39H306.729ZM310.529 8.21165C309.405 8.21165 308.44 7.83878 307.635 7.09304C306.842 6.33546 306.445 5.42992 306.445 4.37642C306.445 3.33475 306.842 2.44105 307.635 1.69531C308.44 0.937735 309.405 0.558947 310.529 0.558947C311.654 0.558947 312.612 0.937735 313.406 1.69531C314.21 2.44105 314.613 3.33475 314.613 4.37642C314.613 5.42992 314.21 6.33546 313.406 7.09304C312.612 7.83878 311.654 8.21165 310.529 8.21165ZM417.769 28.098V27.4943C417.781 25.4228 417.964 23.7715 418.319 22.5405C418.686 21.3094 419.219 20.3151 419.917 19.5575C420.616 18.8 421.456 18.1134 422.439 17.4979C423.173 17.0244 423.83 16.5331 424.41 16.0241C424.99 15.5152 425.451 14.9529 425.795 14.3374C426.138 13.71 426.309 13.0116 426.309 12.2422C426.309 11.4254 426.114 10.7093 425.724 10.0938C425.333 9.47822 424.806 9.00473 424.143 8.67329C423.492 8.34185 422.77 8.17613 421.977 8.17613C421.208 8.17613 420.48 8.34777 419.793 8.69105C419.107 9.02249 418.544 9.51965 418.106 10.1825C417.668 10.8336 417.432 11.6444 417.396 12.6151H410.152C410.211 10.2476 410.779 8.29451 411.856 6.75568C412.934 5.20502 414.36 4.0509 416.135 3.29332C417.911 2.52391 419.87 2.1392 422.013 2.1392C424.368 2.1392 426.452 2.52983 428.263 3.31108C430.074 4.08049 431.494 5.1991 432.524 6.6669C433.554 8.13471 434.069 9.90435 434.069 11.9759C434.069 13.3608 433.838 14.5919 433.376 15.669C432.926 16.7344 432.293 17.6813 431.476 18.5099C430.66 19.3267 429.695 20.0665 428.582 20.7294C427.647 21.2857 426.878 21.8658 426.274 22.4695C425.682 23.0732 425.238 23.7715 424.942 24.5646C424.658 25.3577 424.51 26.3343 424.498 27.4943V28.098H417.769ZM421.285 39.4616C420.101 39.4616 419.089 39.0473 418.248 38.2188C417.42 37.3783 417.011 36.3722 417.023 35.2003C417.011 34.0402 417.42 33.0459 418.248 32.2173C419.089 31.3887 420.101 30.9744 421.285 30.9744C422.409 30.9744 423.398 31.3887 424.25 32.2173C425.102 33.0459 425.534 34.0402 425.546 35.2003C425.534 35.9815 425.327 36.6977 424.925 37.3487C424.534 37.9879 424.019 38.5028 423.38 38.8935C422.741 39.2723 422.042 39.4616 421.285 39.4616ZM8.90909 92H2.00852V71.6364H9.0483C11.0701 71.6364 12.8068 72.044 14.2585 72.8594C15.7169 73.6681 16.8371 74.8314 17.6193 76.3494C18.4015 77.8674 18.7926 79.6837 18.7926 81.7983C18.7926 83.9195 18.3982 85.7424 17.6094 87.267C16.8272 88.7917 15.697 89.9616 14.2188 90.777C12.7472 91.5923 10.9773 92 8.90909 92ZM5.69744 88.8082H8.73011C10.1487 88.8082 11.3319 88.5497 12.2798 88.0327C13.2277 87.509 13.9403 86.7301 14.4176 85.696C14.8949 84.6553 15.1335 83.3561 15.1335 81.7983C15.1335 80.2405 14.8949 78.9479 14.4176 77.9205C13.9403 76.8864 13.2344 76.1141 12.2997 75.6037C11.3717 75.0866 10.2183 74.8281 8.83949 74.8281H5.69744V88.8082ZM22.1385 92V76.7273H25.7379V92H22.1385ZM23.9482 74.5597C23.3781 74.5597 22.8875 74.3707 22.4766 73.9929C22.0656 73.6084 21.8601 73.1477 21.8601 72.6108C21.8601 72.0672 22.0656 71.6065 22.4766 71.2287C22.8875 70.8442 23.3781 70.652 23.9482 70.652C24.5249 70.652 25.0154 70.8442 25.4197 71.2287C25.8307 71.6065 26.0362 72.0672 26.0362 72.6108C26.0362 73.1477 25.8307 73.6084 25.4197 73.9929C25.0154 74.3707 24.5249 74.5597 23.9482 74.5597ZM41.5103 80.7642L38.229 81.1222C38.1362 80.7907 37.9738 80.4792 37.7418 80.1875C37.5165 79.8958 37.2115 79.6605 36.8271 79.4815C36.4426 79.3026 35.9719 79.2131 35.4151 79.2131C34.6661 79.2131 34.0363 79.3755 33.5259 79.7003C33.0221 80.0251 32.7736 80.446 32.7802 80.9631C32.7736 81.4072 32.936 81.7685 33.2674 82.0469C33.6055 82.3253 34.1623 82.554 34.9379 82.733L37.543 83.2898C38.988 83.6013 40.0619 84.0952 40.7646 84.7713C41.4738 85.4474 41.8318 86.3324 41.8384 87.4261C41.8318 88.3873 41.5501 89.2358 40.9933 89.9716C40.4431 90.7008 39.6774 91.2708 38.6964 91.6818C37.7153 92.0928 36.5884 92.2983 35.3157 92.2983C33.4464 92.2983 31.9416 91.9072 30.8015 91.125C29.6613 90.3362 28.9819 89.2391 28.7631 87.8338L32.2731 87.4957C32.4322 88.1851 32.7702 88.7055 33.2873 89.0568C33.8043 89.4081 34.4772 89.5838 35.3058 89.5838C36.1609 89.5838 36.8469 89.4081 37.364 89.0568C37.8877 88.7055 38.1495 88.2713 38.1495 87.7543C38.1495 87.3168 37.9805 86.9555 37.6424 86.6705C37.311 86.3854 36.7939 86.1667 36.0913 86.0142L33.4862 85.4673C32.0212 85.1624 30.9374 84.6487 30.2347 83.9261C29.5321 83.197 29.1841 82.2756 29.1907 81.1619C29.1841 80.2206 29.4393 79.4053 29.9563 78.7159C30.48 78.0199 31.2058 77.483 32.1339 77.1051C33.0685 76.7206 34.1457 76.5284 35.3654 76.5284C37.1552 76.5284 38.5638 76.9096 39.5913 77.6719C40.6254 78.4342 41.265 79.465 41.5103 80.7642ZM51.4684 92.2983C49.9438 92.2983 48.6346 91.9635 47.5408 91.294C46.4537 90.6245 45.6152 89.6998 45.0252 88.5199C44.4419 87.3333 44.1502 85.9678 44.1502 84.4233C44.1502 82.8722 44.4485 81.5033 45.0451 80.3168C45.6417 79.1236 46.4835 78.1955 47.5707 77.5327C48.6644 76.8632 49.957 76.5284 51.4485 76.5284C52.6881 76.5284 53.7852 76.7571 54.7397 77.2145C55.7009 77.6652 56.4665 78.3049 57.0366 79.1335C57.6067 79.9555 57.9315 80.9167 58.011 82.017H54.5707C54.4315 81.2812 54.1 80.6681 53.5763 80.1776C53.0593 79.6804 52.3666 79.4318 51.4982 79.4318C50.7624 79.4318 50.1161 79.6307 49.5593 80.0284C49.0025 80.4195 48.5683 80.983 48.2567 81.7188C47.9518 82.4545 47.7994 83.3362 47.7994 84.3636C47.7994 85.4044 47.9518 86.2992 48.2567 87.0483C48.5617 87.7907 48.9892 88.3641 49.5394 88.7685C50.0962 89.1662 50.7492 89.3651 51.4982 89.3651C52.0285 89.3651 52.5025 89.2656 52.9201 89.0668C53.3443 88.8613 53.699 88.5663 53.984 88.1818C54.2691 87.7973 54.4646 87.33 54.5707 86.7798H58.011C57.9248 87.8603 57.6067 88.8182 57.0565 89.6534C56.5063 90.482 55.7572 91.1316 54.8093 91.6023C53.8614 92.0663 52.7478 92.2983 51.4684 92.2983ZM67.6286 92.2983C66.1371 92.2983 64.8445 91.9702 63.7507 91.3139C62.657 90.6577 61.8085 89.7396 61.2053 88.5597C60.6087 87.3797 60.3104 86.0009 60.3104 84.4233C60.3104 82.8456 60.6087 81.4635 61.2053 80.277C61.8085 79.0904 62.657 78.169 63.7507 77.5128C64.8445 76.8565 66.1371 76.5284 67.6286 76.5284C69.12 76.5284 70.4126 76.8565 71.5064 77.5128C72.6001 78.169 73.4453 79.0904 74.0419 80.277C74.6451 81.4635 74.9467 82.8456 74.9467 84.4233C74.9467 86.0009 74.6451 87.3797 74.0419 88.5597C73.4453 89.7396 72.6001 90.6577 71.5064 91.3139C70.4126 91.9702 69.12 92.2983 67.6286 92.2983ZM67.6484 89.4148C68.4571 89.4148 69.1333 89.1927 69.6768 88.7486C70.2204 88.2978 70.6248 87.6946 70.8899 86.9389C71.1617 86.1832 71.2976 85.3414 71.2976 84.4134C71.2976 83.4787 71.1617 82.6335 70.8899 81.8778C70.6248 81.1155 70.2204 80.509 69.6768 80.0582C69.1333 79.6075 68.4571 79.3821 67.6484 79.3821C66.8198 79.3821 66.1304 79.6075 65.5803 80.0582C65.0367 80.509 64.629 81.1155 64.3572 81.8778C64.0921 82.6335 63.9595 83.4787 63.9595 84.4134C63.9595 85.3414 64.0921 86.1832 64.3572 86.9389C64.629 87.6946 65.0367 88.2978 65.5803 88.7486C66.1304 89.1927 66.8198 89.4148 67.6484 89.4148ZM91.1243 76.7273L85.6854 92H81.7081L76.2692 76.7273H80.1072L83.6172 88.0724H83.7763L87.2962 76.7273H91.1243ZM99.8569 92.2983C98.3256 92.2983 97.0032 91.9801 95.8896 91.3438C94.7826 90.7008 93.9308 89.7926 93.3342 88.6193C92.7376 87.4394 92.4393 86.0507 92.4393 84.4531C92.4393 82.8821 92.7376 81.5033 93.3342 80.3168C93.9374 79.1236 94.7792 78.1955 95.8597 77.5327C96.9402 76.8632 98.2096 76.5284 99.668 76.5284C100.609 76.5284 101.498 76.6809 102.333 76.9858C103.175 77.2841 103.917 77.7481 104.56 78.3778C105.21 79.0076 105.72 79.8097 106.091 80.7841C106.462 81.7519 106.648 82.9053 106.648 84.2443V85.348H94.1296V82.9219H103.198C103.191 82.2325 103.042 81.6193 102.75 81.0824C102.459 80.5388 102.051 80.1113 101.527 79.7997C101.01 79.4882 100.407 79.3324 99.7177 79.3324C98.9819 79.3324 98.3356 79.5114 97.7788 79.8693C97.2219 80.2206 96.7878 80.6847 96.4762 81.2614C96.1713 81.8314 96.0155 82.4579 96.0089 83.1406V85.2585C96.0089 86.1468 96.1713 86.9091 96.4961 87.5455C96.8209 88.1752 97.275 88.6591 97.8583 88.9972C98.4416 89.3286 99.1244 89.4943 99.9066 89.4943C100.43 89.4943 100.904 89.4214 101.328 89.2756C101.753 89.1231 102.121 88.901 102.432 88.6094C102.744 88.3177 102.979 87.9564 103.138 87.5256L106.499 87.9034C106.287 88.7917 105.882 89.5672 105.286 90.2301C104.696 90.8864 103.94 91.3968 103.019 91.7614C102.097 92.1193 101.043 92.2983 99.8569 92.2983ZM109.693 92V76.7273H113.183V79.2727H113.342C113.621 78.3911 114.098 77.7116 114.774 77.2344C115.457 76.7505 116.236 76.5085 117.111 76.5085C117.31 76.5085 117.532 76.5185 117.777 76.5384C118.029 76.5516 118.238 76.5748 118.403 76.608V79.919C118.251 79.866 118.009 79.8196 117.678 79.7798C117.353 79.7334 117.038 79.7102 116.733 79.7102C116.077 79.7102 115.487 79.8527 114.963 80.1378C114.446 80.4162 114.038 80.804 113.74 81.3011C113.442 81.7983 113.293 82.3717 113.293 83.0213V92H109.693ZM135.366 76.7273V79.5114H126.587V76.7273H135.366ZM128.754 73.0682H132.354V87.4062C132.354 87.8902 132.427 88.2614 132.572 88.5199C132.725 88.7718 132.924 88.9441 133.169 89.0369C133.414 89.1297 133.686 89.1761 133.984 89.1761C134.21 89.1761 134.415 89.1596 134.601 89.1264C134.793 89.0933 134.939 89.0634 135.038 89.0369L135.645 91.8509C135.453 91.9171 135.178 91.9901 134.82 92.0696C134.468 92.1491 134.037 92.1955 133.527 92.2088C132.625 92.2353 131.813 92.0994 131.091 91.8011C130.368 91.4962 129.795 91.0256 129.371 90.3892C128.953 89.7528 128.748 88.9574 128.754 88.0028V73.0682ZM142.304 83.0511V92H138.705V71.6364H142.225V79.3224H142.404C142.762 78.4607 143.315 77.7812 144.064 77.2841C144.82 76.7803 145.781 76.5284 146.948 76.5284C148.008 76.5284 148.933 76.7505 149.722 77.1946C150.511 77.6387 151.121 78.2884 151.551 79.1435C151.989 79.9986 152.208 81.0426 152.208 82.2756V92H148.608V82.8324C148.608 81.8049 148.343 81.0062 147.813 80.4361C147.289 79.8594 146.553 79.571 145.605 79.571C144.969 79.571 144.399 79.7102 143.895 79.9886C143.398 80.2604 143.007 80.6548 142.722 81.1719C142.444 81.6889 142.304 82.3153 142.304 83.0511ZM162.638 92.2983C161.107 92.2983 159.784 91.9801 158.671 91.3438C157.564 90.7008 156.712 89.7926 156.115 88.6193C155.519 87.4394 155.221 86.0507 155.221 84.4531C155.221 82.8821 155.519 81.5033 156.115 80.3168C156.719 79.1236 157.56 78.1955 158.641 77.5327C159.721 76.8632 160.991 76.5284 162.449 76.5284C163.391 76.5284 164.279 76.6809 165.114 76.9858C165.956 77.2841 166.698 77.7481 167.341 78.3778C167.991 79.0076 168.501 79.8097 168.873 80.7841C169.244 81.7519 169.429 82.9053 169.429 84.2443V85.348H156.911V82.9219H165.979C165.972 82.2325 165.823 81.6193 165.532 81.0824C165.24 80.5388 164.832 80.1113 164.309 79.7997C163.792 79.4882 163.188 79.3324 162.499 79.3324C161.763 79.3324 161.117 79.5114 160.56 79.8693C160.003 80.2206 159.569 80.6847 159.257 81.2614C158.953 81.8314 158.797 82.4579 158.79 83.1406V85.2585C158.79 86.1468 158.953 86.9091 159.277 87.5455C159.602 88.1752 160.056 88.6591 160.64 88.9972C161.223 89.3286 161.906 89.4943 162.688 89.4943C163.212 89.4943 163.685 89.4214 164.11 89.2756C164.534 89.1231 164.902 88.901 165.213 88.6094C165.525 88.3177 165.76 87.9564 165.919 87.5256L169.28 87.9034C169.068 88.7917 168.664 89.5672 168.067 90.2301C167.477 90.8864 166.721 91.3968 165.8 91.7614C164.879 92.1193 163.825 92.2983 162.638 92.2983ZM179.579 92V71.6364H192.624V74.7287H183.268V80.2571H191.729V83.3494H183.268V92H179.579ZM204.603 85.5767V76.7273H208.203V92H204.713V89.2855H204.554C204.209 90.1406 203.642 90.84 202.853 91.3835C202.071 91.9271 201.107 92.1989 199.96 92.1989C198.959 92.1989 198.074 91.9768 197.305 91.5327C196.543 91.0819 195.946 90.429 195.515 89.5739C195.084 88.7121 194.869 87.6714 194.869 86.4517V76.7273H198.468V85.8949C198.468 86.8627 198.734 87.6316 199.264 88.2017C199.794 88.7718 200.49 89.0568 201.352 89.0568C201.882 89.0568 202.396 88.9276 202.893 88.669C203.39 88.4105 203.798 88.026 204.116 87.5156C204.441 86.9986 204.603 86.3523 204.603 85.5767ZM219.531 76.7273V79.5114H210.751V76.7273H219.531ZM212.918 73.0682H216.518V87.4062C216.518 87.8902 216.591 88.2614 216.737 88.5199C216.889 88.7718 217.088 88.9441 217.333 89.0369C217.578 89.1297 217.85 89.1761 218.148 89.1761C218.374 89.1761 218.579 89.1596 218.765 89.1264C218.957 89.0933 219.103 89.0634 219.202 89.0369L219.809 91.8509C219.617 91.9171 219.342 91.9901 218.984 92.0696C218.632 92.1491 218.201 92.1955 217.691 92.2088C216.79 92.2353 215.978 92.0994 215.255 91.8011C214.532 91.4962 213.959 91.0256 213.535 90.3892C213.117 89.7528 212.912 88.9574 212.918 88.0028V73.0682ZM232.275 85.5767V76.7273H235.875V92H232.385V89.2855H232.225C231.881 90.1406 231.314 90.84 230.525 91.3835C229.743 91.9271 228.779 92.1989 227.632 92.1989C226.631 92.1989 225.746 91.9768 224.977 91.5327C224.215 91.0819 223.618 90.429 223.187 89.5739C222.756 88.7121 222.541 87.6714 222.541 86.4517V76.7273H226.14V85.8949C226.14 86.8627 226.405 87.6316 226.936 88.2017C227.466 88.7718 228.162 89.0568 229.024 89.0568C229.554 89.0568 230.068 88.9276 230.565 88.669C231.062 88.4105 231.47 88.026 231.788 87.5156C232.113 86.9986 232.275 86.3523 232.275 85.5767ZM239.576 92V76.7273H243.066V79.2727H243.225C243.504 78.3911 243.981 77.7116 244.657 77.2344C245.34 76.7505 246.119 76.5085 246.994 76.5085C247.192 76.5085 247.415 76.5185 247.66 76.5384C247.912 76.5516 248.121 76.5748 248.286 76.608V79.919C248.134 79.866 247.892 79.8196 247.56 79.7798C247.236 79.7334 246.921 79.7102 246.616 79.7102C245.96 79.7102 245.37 79.8527 244.846 80.1378C244.329 80.4162 243.921 80.804 243.623 81.3011C243.325 81.7983 243.175 82.3717 243.175 83.0213V92H239.576ZM256.81 92.2983C255.279 92.2983 253.956 91.9801 252.843 91.3438C251.736 90.7008 250.884 89.7926 250.287 88.6193C249.691 87.4394 249.392 86.0507 249.392 84.4531C249.392 82.8821 249.691 81.5033 250.287 80.3168C250.891 79.1236 251.732 78.1955 252.813 77.5327C253.893 76.8632 255.163 76.5284 256.621 76.5284C257.562 76.5284 258.451 76.6809 259.286 76.9858C260.128 77.2841 260.87 77.7481 261.513 78.3778C262.163 79.0076 262.673 79.8097 263.044 80.7841C263.416 81.7519 263.601 82.9053 263.601 84.2443V85.348H251.083V82.9219H260.151C260.144 82.2325 259.995 81.6193 259.703 81.0824C259.412 80.5388 259.004 80.1113 258.48 79.7997C257.963 79.4882 257.36 79.3324 256.671 79.3324C255.935 79.3324 255.289 79.5114 254.732 79.8693C254.175 80.2206 253.741 80.6847 253.429 81.2614C253.124 81.8314 252.969 82.4579 252.962 83.1406V85.2585C252.962 86.1468 253.124 86.9091 253.449 87.5455C253.774 88.1752 254.228 88.6591 254.811 88.9972C255.395 89.3286 256.078 89.4943 256.86 89.4943C257.383 89.4943 257.857 89.4214 258.282 89.2756C258.706 89.1231 259.074 88.901 259.385 88.6094C259.697 88.3177 259.932 87.9564 260.091 87.5256L263.452 87.9034C263.24 88.7917 262.836 89.5672 262.239 90.2301C261.649 90.8864 260.893 91.3968 259.972 91.7614C259.051 92.1193 257.997 92.2983 256.81 92.2983ZM280.254 92.2983C278.762 92.2983 277.469 91.9702 276.376 91.3139C275.282 90.6577 274.433 89.7396 273.83 88.5597C273.234 87.3797 272.935 86.0009 272.935 84.4233C272.935 82.8456 273.234 81.4635 273.83 80.277C274.433 79.0904 275.282 78.169 276.376 77.5128C277.469 76.8565 278.762 76.5284 280.254 76.5284C281.745 76.5284 283.038 76.8565 284.131 77.5128C285.225 78.169 286.07 79.0904 286.667 80.277C287.27 81.4635 287.572 82.8456 287.572 84.4233C287.572 86.0009 287.27 87.3797 286.667 88.5597C286.07 89.7396 285.225 90.6577 284.131 91.3139C283.038 91.9702 281.745 92.2983 280.254 92.2983ZM280.273 89.4148C281.082 89.4148 281.758 89.1927 282.302 88.7486C282.845 88.2978 283.25 87.6946 283.515 86.9389C283.787 86.1832 283.923 85.3414 283.923 84.4134C283.923 83.4787 283.787 82.6335 283.515 81.8778C283.25 81.1155 282.845 80.509 282.302 80.0582C281.758 79.6075 281.082 79.3821 280.273 79.3821C279.445 79.3821 278.755 79.6075 278.205 80.0582C277.662 80.509 277.254 81.1155 276.982 81.8778C276.717 82.6335 276.585 83.4787 276.585 84.4134C276.585 85.3414 276.717 86.1832 276.982 86.9389C277.254 87.6946 277.662 88.2978 278.205 88.7486C278.755 89.1927 279.445 89.4148 280.273 89.4148ZM298.363 76.7273V79.5114H289.334V76.7273H298.363ZM291.591 92V75.2855C291.591 74.258 291.803 73.4029 292.228 72.7202C292.658 72.0374 293.235 71.527 293.958 71.1889C294.68 70.8509 295.482 70.6818 296.364 70.6818C296.987 70.6818 297.541 70.7315 298.025 70.831C298.508 70.9304 298.866 71.0199 299.098 71.0994L298.382 73.8835C298.23 73.8371 298.038 73.7907 297.806 73.7443C297.574 73.6913 297.315 73.6648 297.03 73.6648C296.361 73.6648 295.887 73.8272 295.608 74.152C295.337 74.4702 295.201 74.9276 295.201 75.5241V92H291.591ZM308.286 92V71.6364H311.975V80.2571H321.411V71.6364H325.11V92H321.411V83.3494H311.975V92H308.286ZM335.724 92.2983C334.193 92.2983 332.87 91.9801 331.757 91.3438C330.65 90.7008 329.798 89.7926 329.201 88.6193C328.605 87.4394 328.306 86.0507 328.306 84.4531C328.306 82.8821 328.605 81.5033 329.201 80.3168C329.805 79.1236 330.646 78.1955 331.727 77.5327C332.807 76.8632 334.077 76.5284 335.535 76.5284C336.476 76.5284 337.365 76.6809 338.2 76.9858C339.042 77.2841 339.784 77.7481 340.427 78.3778C341.077 79.0076 341.587 79.8097 341.958 80.7841C342.33 81.7519 342.515 82.9053 342.515 84.2443V85.348H329.997V82.9219H339.065C339.058 82.2325 338.909 81.6193 338.618 81.0824C338.326 80.5388 337.918 80.1113 337.395 79.7997C336.877 79.4882 336.274 79.3324 335.585 79.3324C334.849 79.3324 334.203 79.5114 333.646 79.8693C333.089 80.2206 332.655 80.6847 332.343 81.2614C332.038 81.8314 331.883 82.4579 331.876 83.1406V85.2585C331.876 86.1468 332.038 86.9091 332.363 87.5455C332.688 88.1752 333.142 88.6591 333.725 88.9972C334.309 89.3286 334.992 89.4943 335.774 89.4943C336.297 89.4943 336.771 89.4214 337.196 89.2756C337.62 89.1231 337.988 88.901 338.299 88.6094C338.611 88.3177 338.846 87.9564 339.005 87.5256L342.366 87.9034C342.154 88.7917 341.75 89.5672 341.153 90.2301C340.563 90.8864 339.807 91.3968 338.886 91.7614C337.965 92.1193 336.911 92.2983 335.724 92.2983ZM349.955 92.3082C348.987 92.3082 348.116 92.1359 347.34 91.7912C346.571 91.4399 345.961 90.9228 345.511 90.2401C345.067 89.5573 344.844 88.7154 344.844 87.7145C344.844 86.8527 345.004 86.1402 345.322 85.5767C345.64 85.0133 346.074 84.5625 346.624 84.2244C347.174 83.8864 347.794 83.6312 348.484 83.4588C349.18 83.2798 349.899 83.1506 350.641 83.071C351.536 82.9782 352.262 82.8954 352.819 82.8224C353.376 82.7429 353.78 82.6236 354.032 82.4645C354.29 82.2988 354.42 82.0436 354.42 81.6989V81.6392C354.42 80.8902 354.198 80.3101 353.754 79.8991C353.309 79.4882 352.67 79.2827 351.835 79.2827C350.953 79.2827 350.254 79.4749 349.737 79.8594C349.226 80.2438 348.881 80.6979 348.702 81.2216L345.342 80.7443C345.607 79.8163 346.044 79.0407 346.654 78.4176C347.264 77.7879 348.01 77.3172 348.891 77.0057C349.773 76.6875 350.747 76.5284 351.815 76.5284C352.55 76.5284 353.283 76.6146 354.012 76.7869C354.741 76.9593 355.407 77.2443 356.011 77.642C356.614 78.0331 357.098 78.5668 357.462 79.2429C357.834 79.919 358.019 80.7642 358.019 81.7784V92H354.559V89.902H354.44C354.221 90.3262 353.913 90.724 353.515 91.0952C353.124 91.4598 352.63 91.7547 352.033 91.9801C351.443 92.1989 350.751 92.3082 349.955 92.3082ZM350.89 89.6634C351.612 89.6634 352.239 89.5208 352.769 89.2358C353.299 88.9441 353.707 88.5597 353.992 88.0824C354.284 87.6051 354.43 87.0848 354.43 86.5213V84.7216C354.317 84.8144 354.125 84.9006 353.853 84.9801C353.588 85.0597 353.29 85.1293 352.958 85.1889C352.627 85.2486 352.299 85.3016 351.974 85.348C351.649 85.3944 351.367 85.4342 351.129 85.4673C350.592 85.5402 350.111 85.6596 349.687 85.8253C349.263 85.991 348.928 86.223 348.683 86.5213C348.437 86.813 348.315 87.1908 348.315 87.6548C348.315 88.3177 348.557 88.8182 349.04 89.1562C349.524 89.4943 350.141 89.6634 350.89 89.6634ZM365.238 71.6364V92H361.638V71.6364H365.238ZM376.566 76.7273V79.5114H367.786V76.7273H376.566ZM369.953 73.0682H373.553V87.4062C373.553 87.8902 373.626 88.2614 373.772 88.5199C373.924 88.7718 374.123 88.9441 374.368 89.0369C374.614 89.1297 374.885 89.1761 375.184 89.1761C375.409 89.1761 375.614 89.1596 375.8 89.1264C375.992 89.0933 376.138 89.0634 376.238 89.0369L376.844 91.8509C376.652 91.9171 376.377 91.9901 376.019 92.0696C375.667 92.1491 375.237 92.1955 374.726 92.2088C373.825 92.2353 373.013 92.0994 372.29 91.8011C371.568 91.4962 370.994 91.0256 370.57 90.3892C370.152 89.7528 369.947 88.9574 369.953 88.0028V73.0682ZM383.504 83.0511V92H379.904V71.6364H383.424V79.3224H383.603C383.961 78.4607 384.514 77.7812 385.263 77.2841C386.019 76.7803 386.98 76.5284 388.147 76.5284C389.208 76.5284 390.132 76.7505 390.921 77.1946C391.71 77.6387 392.32 78.2884 392.751 79.1435C393.188 79.9986 393.407 81.0426 393.407 82.2756V92H389.808V82.8324C389.808 81.8049 389.542 81.0062 389.012 80.4361C388.488 79.8594 387.753 79.571 386.805 79.571C386.168 79.571 385.598 79.7102 385.094 79.9886C384.597 80.2604 384.206 80.6548 383.921 81.1719C383.643 81.6889 383.504 82.3153 383.504 83.0511ZM403.738 92.2983C402.213 92.2983 400.904 91.9635 399.81 91.294C398.723 90.6245 397.885 89.6998 397.295 88.5199C396.711 87.3333 396.42 85.9678 396.42 84.4233C396.42 82.8722 396.718 81.5033 397.315 80.3168C397.911 79.1236 398.753 78.1955 399.84 77.5327C400.934 76.8632 402.227 76.5284 403.718 76.5284C404.958 76.5284 406.055 76.7571 407.009 77.2145C407.97 77.6652 408.736 78.3049 409.306 79.1335C409.876 79.9555 410.201 80.9167 410.281 82.017H406.84C406.701 81.2812 406.37 80.6681 405.846 80.1776C405.329 79.6804 404.636 79.4318 403.768 79.4318C403.032 79.4318 402.386 79.6307 401.829 80.0284C401.272 80.4195 400.838 80.983 400.526 81.7188C400.221 82.4545 400.069 83.3362 400.069 84.3636C400.069 85.4044 400.221 86.2992 400.526 87.0483C400.831 87.7907 401.259 88.3641 401.809 88.7685C402.366 89.1662 403.019 89.3651 403.768 89.3651C404.298 89.3651 404.772 89.2656 405.19 89.0668C405.614 88.8613 405.969 88.5663 406.254 88.1818C406.539 87.7973 406.734 87.33 406.84 86.7798H410.281C410.194 87.8603 409.876 88.8182 409.326 89.6534C408.776 90.482 408.027 91.1316 407.079 91.6023C406.131 92.0663 405.017 92.2983 403.738 92.2983ZM417.631 92.3082C416.663 92.3082 415.792 92.1359 415.016 91.7912C414.247 91.4399 413.637 90.9228 413.186 90.2401C412.742 89.5573 412.52 88.7154 412.52 87.7145C412.52 86.8527 412.679 86.1402 412.998 85.5767C413.316 85.0133 413.75 84.5625 414.3 84.2244C414.85 83.8864 415.47 83.6312 416.159 83.4588C416.855 83.2798 417.575 83.1506 418.317 83.071C419.212 82.9782 419.938 82.8954 420.495 82.8224C421.051 82.7429 421.456 82.6236 421.708 82.4645C421.966 82.2988 422.096 82.0436 422.096 81.6989V81.6392C422.096 80.8902 421.873 80.3101 421.429 79.8991C420.985 79.4882 420.346 79.2827 419.51 79.2827C418.629 79.2827 417.929 79.4749 417.412 79.8594C416.902 80.2438 416.557 80.6979 416.378 81.2216L413.017 80.7443C413.283 79.8163 413.72 79.0407 414.33 78.4176C414.94 77.7879 415.685 77.3172 416.567 77.0057C417.449 76.6875 418.423 76.5284 419.49 76.5284C420.226 76.5284 420.959 76.6146 421.688 76.7869C422.417 76.9593 423.083 77.2443 423.686 77.642C424.29 78.0331 424.774 78.5668 425.138 79.2429C425.509 79.919 425.695 80.7642 425.695 81.7784V92H422.235V89.902H422.115C421.897 90.3262 421.588 90.724 421.191 91.0952C420.8 91.4598 420.306 91.7547 419.709 91.9801C419.119 92.1989 418.426 92.3082 417.631 92.3082ZM418.566 89.6634C419.288 89.6634 419.915 89.5208 420.445 89.2358C420.975 88.9441 421.383 88.5597 421.668 88.0824C421.96 87.6051 422.105 87.0848 422.105 86.5213V84.7216C421.993 84.8144 421.801 84.9006 421.529 84.9801C421.264 85.0597 420.965 85.1293 420.634 85.1889C420.302 85.2486 419.974 85.3016 419.65 85.348C419.325 85.3944 419.043 85.4342 418.804 85.4673C418.267 85.5402 417.787 85.6596 417.363 85.8253C416.938 85.991 416.604 86.223 416.358 86.5213C416.113 86.813 415.99 87.1908 415.99 87.6548C415.99 88.3177 416.232 88.8182 416.716 89.1562C417.2 89.4943 417.817 89.6634 418.566 89.6634ZM429.314 92V76.7273H432.804V79.2727H432.963C433.242 78.3911 433.719 77.7116 434.395 77.2344C435.078 76.7505 435.857 76.5085 436.732 76.5085C436.931 76.5085 437.153 76.5185 437.398 76.5384C437.65 76.5516 437.859 76.5748 438.025 76.608V79.919C437.872 79.866 437.63 79.8196 437.299 79.7798C436.974 79.7334 436.659 79.7102 436.354 79.7102C435.698 79.7102 435.108 79.8527 434.584 80.1378C434.067 80.4162 433.659 80.804 433.361 81.3011C433.063 81.7983 432.914 82.3717 432.914 83.0213V92H429.314ZM446.548 92.2983C445.017 92.2983 443.695 91.9801 442.581 91.3438C441.474 90.7008 440.622 89.7926 440.026 88.6193C439.429 87.4394 439.131 86.0507 439.131 84.4531C439.131 82.8821 439.429 81.5033 440.026 80.3168C440.629 79.1236 441.471 78.1955 442.551 77.5327C443.632 76.8632 444.901 76.5284 446.359 76.5284C447.301 76.5284 448.189 76.6809 449.024 76.9858C449.866 77.2841 450.608 77.7481 451.251 78.3778C451.901 79.0076 452.411 79.8097 452.783 80.7841C453.154 81.7519 453.339 82.9053 453.339 84.2443V85.348H440.821V82.9219H449.889C449.883 82.2325 449.733 81.6193 449.442 81.0824C449.15 80.5388 448.742 80.1113 448.219 79.7997C447.702 79.4882 447.098 79.3324 446.409 79.3324C445.673 79.3324 445.027 79.5114 444.47 79.8693C443.913 80.2206 443.479 80.6847 443.168 81.2614C442.863 81.8314 442.707 82.4579 442.7 83.1406V85.2585C442.7 86.1468 442.863 86.9091 443.188 87.5455C443.512 88.1752 443.966 88.6591 444.55 88.9972C445.133 89.3286 445.816 89.4943 446.598 89.4943C447.122 89.4943 447.596 89.4214 448.02 89.2756C448.444 89.1231 448.812 88.901 449.124 88.6094C449.435 88.3177 449.67 87.9564 449.83 87.5256L453.19 87.9034C452.978 88.7917 452.574 89.5672 451.977 90.2301C451.387 90.8864 450.632 91.3968 449.71 91.7614C448.789 92.1193 447.735 92.2983 446.548 92.2983Z" fill="#F0EBE6"/>
<path d="M320.494 39V2.63636H328.183V18.6697H328.662L341.748 2.63636H350.963L337.469 18.9183L351.123 39H341.926L331.965 24.0497L328.183 28.6662V39H320.494ZM365.252 39.5327C362.447 39.5327 360.032 38.9645 358.008 37.8281C355.996 36.6799 354.445 35.0582 353.356 32.9631C352.267 30.8561 351.722 28.3643 351.722 25.4879C351.722 22.6825 352.267 20.2204 353.356 18.1016C354.445 15.9827 355.978 14.3314 357.955 13.1477C359.943 11.964 362.275 11.3722 364.95 11.3722C366.75 11.3722 368.424 11.6622 369.975 12.2422C371.538 12.8104 372.899 13.6686 374.059 14.8168C375.231 15.965 376.142 17.4091 376.793 19.1491C377.444 20.8774 377.77 22.9015 377.77 25.2216V27.299H354.741V22.6115H370.65C370.65 21.5225 370.413 20.5578 369.94 19.7173C369.466 18.8769 368.809 18.2199 367.969 17.7464C367.14 17.2611 366.175 17.0185 365.075 17.0185C363.926 17.0185 362.908 17.2848 362.021 17.8175C361.145 18.3383 360.458 19.0426 359.961 19.9304C359.464 20.8063 359.209 21.7829 359.197 22.8601V27.3168C359.197 28.6662 359.446 29.8321 359.943 30.8146C360.452 31.7971 361.168 32.5547 362.092 33.0874C363.015 33.62 364.11 33.8864 365.376 33.8864C366.217 33.8864 366.986 33.768 367.685 33.5312C368.383 33.2945 368.981 32.9394 369.478 32.4659C369.975 31.9924 370.354 31.4124 370.614 30.7259L377.61 31.1875C377.255 32.8684 376.527 34.3362 375.426 35.5909C374.337 36.8338 372.929 37.8045 371.2 38.5028C369.484 39.1894 367.501 39.5327 365.252 39.5327ZM386.643 49.2273C385.684 49.2273 384.785 49.1503 383.944 48.9964C383.116 48.8544 382.429 48.6709 381.885 48.446L383.589 42.7997C384.477 43.072 385.276 43.2199 385.986 43.2436C386.708 43.2673 387.33 43.1016 387.851 42.7464C388.383 42.3913 388.815 41.7876 389.147 40.9354L389.591 39.7812L379.807 11.7273H387.762L393.408 31.7557H393.692L399.392 11.7273H407.4L396.8 41.9474C396.291 43.4152 395.598 44.6937 394.722 45.7827C393.858 46.8835 392.763 47.7299 391.437 48.3217C390.112 48.9254 388.514 49.2273 386.643 49.2273Z" fill="url(#paint0_linear_312_207)"/>
<defs>
<linearGradient id="paint0_linear_312_207" x1="324" y1="-3" x2="324" y2="106" gradientUnits="userSpaceOnUse">
<stop stop-color="#FFA600"/>
<stop offset="1" stop-color="#FF6361"/>
</linearGradient>
</defs>
</svg>
